<?xml version="1.0" encoding="UTF-8" standalone="no"?>
<!-- Created with Inkscape (http://www.inkscape.org/) -->

<svg
   xmlns:dc="http://purl.org/dc/elements/1.1/"
   xmlns:cc="http://creativecommons.org/ns#"
   xmlns:rdf="http://www.w3.org/1999/02/22-rdf-syntax-ns#"
   xmlns:svg="http://www.w3.org/2000/svg"
   xmlns="http://www.w3.org/2000/svg"
   xmlns:sodipodi="http://sodipodi.sourceforge.net/DTD/sodipodi-0.dtd"
   xmlns:inkscape="http://www.inkscape.org/namespaces/inkscape"
   width="902.10046mm"
   height="183.92813mm"
   viewBox="0 0 902.10048 183.92814"
   version="1.1"
   id="svg8"
   inkscape:version="0.92.3 (2405546, 2018-03-11)"
   sodipodi:docname="lockpick-template-finished-example.svg">
  <defs
     id="defs2" />
  <sodipodi:namedview
     id="base"
     pagecolor="#ffffff"
     bordercolor="#666666"
     borderopacity="1.0"
     inkscape:pageopacity="1"
     inkscape:pageshadow="2"
     inkscape:zoom="0.32"
     inkscape:cx="2107.9216"
     inkscape:cy="309.30802"
     inkscape:document-units="mm"
     inkscape:current-layer="layer2"
     showgrid="false"
     inkscape:lockguides="true"
     showguides="true"
     inkscape:guide-bbox="true"
     inkscape:window-width="1920"
     inkscape:window-height="1017"
     inkscape:window-x="-8"
     inkscape:window-y="-8"
     inkscape:window-maximized="1"
     objecttolerance="1"
     guidetolerance="1"
     units="mm"
     fit-margin-top="10"
     fit-margin-left="10"
     fit-margin-right="10"
     fit-margin-bottom="10" />
  <metadata
     id="metadata5">
    <rdf:RDF>
      <cc:Work
         rdf:about="">
        <dc:format>image/svg+xml</dc:format>
        <dc:type
           rdf:resource="http://purl.org/dc/dcmitype/StillImage" />
        <dc:title></dc:title>
      </cc:Work>
    </rdf:RDF>
  </metadata>
  <g
     inkscape:label="Layer 1"
     inkscape:groupmode="layer"
     id="layer1"
     style="display:inline;opacity:0.70899999"
     transform="translate(407.4281,-199.65765)" />
  <g
     inkscape:groupmode="layer"
     id="layer4"
     inkscape:label="OpenPicks"
     style="display:inline;opacity:0.63700005"
     transform="translate(407.4281,-199.65765)" />
  <g
     inkscape:groupmode="layer"
     id="layer3"
     inkscape:label="Layer 3"
     style="display:inline;opacity:0.48300003"
     transform="translate(407.4281,-199.65765)" />
  <g
     inkscape:groupmode="layer"
     id="layer2"
     inkscape:label="Layer 2"
     style="display:inline"
     transform="translate(407.4281,-199.65765)">
    <path
       inkscape:connector-curvature="0"
       style="fill:#000000;fill-opacity:1;stroke:#000000;stroke-width:0.08673356;stroke-miterlimit:4;stroke-dasharray:none;stroke-opacity:1"
       d="m 173.68627,218.29006 c 0.0242,-0.36364 0.56272,-0.82708 0.58786,-1.49604 0.0213,-0.56623 -0.84679,-1.1821 -0.94917,-1.85688 -0.0812,-0.53482 0.53745,-0.95086 0.56492,-1.43524 0.0306,-0.53885 -0.22483,-0.90666 -0.52409,-1.20264 -0.29924,-0.29599 -0.60106,-0.0241 -0.73856,0.18966 -0.1944,0.30224 0.24008,0.68649 0.18904,1.06136 -0.0567,0.41668 -0.62233,0.90674 -0.52741,1.48184 0.10124,0.61347 0.64895,1.17981 0.62729,1.76307 -0.0293,0.78835 -0.84657,1.32989 -0.84643,1.52619 l -0.57725,35.85848 c -1.53854,0.62543 -2.93697,2.20735 -2.93697,3.97055 h 0.007 v 79.89952 h -0.007 c 0,2.32326 1.88372,4.20646 4.20698,4.20646 2.32326,0 4.20646,-1.8832 4.20646,-4.20646 h -0.007 v -79.89952 c -0.0252,-2.05351 -1.55257,-3.49371 -2.68138,-3.85532 z"
       id="path7850"
       sodipodi:nodetypes="cssszasssccccccsccccc" />
    <path
       inkscape:connector-curvature="0"
       style="fill:#000000;fill-opacity:1;stroke:#000000;stroke-width:0.08673356;stroke-miterlimit:4;stroke-dasharray:none;stroke-opacity:1"
       d="m 160.24279,219.24916 c 0.064,-1.61821 -1.64589,-2.82377 -1.51452,-4.29693 0.12135,-1.36078 0.66738,-1.7219 1.04687,-1.98869 1.1088,-0.77948 0.55743,-2.02391 -0.86778,-1.04178 -1.42522,0.98212 -1.53784,1.85833 -1.70587,2.86753 -0.23685,1.4226 1.41209,2.85354 1.41827,4.29926 0.006,1.44571 -1.95769,2.43671 -2.34123,4.16769 l -0.51157,30.92361 c -1.53854,0.62543 -2.93697,2.20735 -2.93697,3.97055 h 0.007 v 79.89953 h -0.007 c 0,2.32326 1.88372,4.20646 4.20698,4.20646 2.32326,0 4.20647,-1.8832 4.20647,-4.20646 h -0.007 V 258.1504 c -0.0252,-2.05351 -1.55257,-3.49371 -2.68139,-3.85532 l -0.5789,-30.77442 c 0.4579,-1.91993 2.20648,-2.75028 2.26664,-4.2715 z"
       id="path7857"
       sodipodi:nodetypes="ssszszccccccscccccs" />
    <path
       inkscape:connector-curvature="0"
       style="fill:#000000;fill-opacity:1;stroke:#000000;stroke-width:0.08673356;stroke-miterlimit:4;stroke-dasharray:none;stroke-opacity:1"
       d="m 142.27208,218.24082 1.23696,-1.63078 c 0.14273,-0.18817 0.20774,-0.34696 -0.0126,-0.54337 -9.9e-4,-8.8e-4 -0.002,-0.002 -0.003,-0.003 -2.06653,-1.5975 -0.83469,-3.20745 -0.0917,-3.81515 0.31712,-0.25938 0.18953,-0.58014 -0.0203,-0.70344 l -2.71313,-1.85161 c 0.0436,0.0589 -0.17218,0.17523 -0.11458,0.22181 1.0546,0.85192 2.2697,2.12081 0.058,3.79908 -0.40583,0.26638 -0.22642,0.44916 -0.0279,0.6292 1.72188,1.78112 1.57944,2.5666 -0.18734,4.13374 l -0.35504,35.70255 c -1.53854,0.62543 -2.93696,2.20735 -2.93696,3.97055 h 0.007 v 79.89953 h -0.007 c 0,2.32326 1.88371,4.20646 4.20697,4.20646 2.32326,0 4.20647,-1.8832 4.20647,-4.20646 h -0.007 V 258.1504 c -0.0252,-2.05351 -1.55258,-3.49371 -2.68139,-3.85532 z"
       id="path7859"
       sodipodi:nodetypes="cssssccsccccccccsccccc" />
    <path
       inkscape:connector-curvature="0"
       style="fill:#000000;fill-opacity:1;stroke:#000000;stroke-width:0.08673356;stroke-miterlimit:4;stroke-dasharray:none;stroke-opacity:1"
       d="m 126.17903,215.40441 c 0.10123,-0.77319 0.5621,-1.15679 0.90579,-1.66732 l -1.60682,-1.29124 c -0.21301,-0.17117 -0.60963,-0.65952 -0.59565,0.0863 l -0.0698,21.76744 -0.4966,19.88027 c -1.53854,0.62543 -2.93696,2.20734 -2.93696,3.97054 h 0.007 v 79.89953 h -0.007 c 0,2.32326 1.88371,4.20646 4.20697,4.20646 2.32326,0 4.20646,-1.8832 4.20646,-4.20646 h -0.007 V 258.1504 c -0.0252,-2.05351 -1.55257,-3.49371 -2.68138,-3.85532 l -0.58814,-20.51038 1.44393,-2.05145 c -1.20096,-1.31144 -0.95083,-2.57754 -0.0421,-3.82306 -1.27723,-1.25553 -1.91342,-2.62995 -0.47468,-4.38925 -1.47035,-1.60828 -0.48722,-2.45275 0.30325,-3.35719 -0.64337,-0.71283 -0.82308,-1.54331 0.006,-2.62977 -0.66929,-0.6198 -1.65812,-1.04097 -1.57329,-2.12954 z"
       id="path7861"
       sodipodi:nodetypes="ccscccccccsccccccccccc" />
    <path
       inkscape:connector-curvature="0"
       style="fill:#000000;fill-opacity:1;stroke:#000000;stroke-width:0.08673356;stroke-miterlimit:4;stroke-dasharray:none;stroke-opacity:1"
       d="m 112.08349,226.70984 c -0.32581,-0.70228 -0.34308,-1.38527 0.0364,-2.04347 -0.42415,-0.72594 -0.86259,-1.44712 -0.25517,-2.51691 -0.85214,-0.75406 -1.4179,-1.61546 -0.0162,-2.77981 -0.47126,-0.54509 -0.90017,-1.06209 -0.12869,-2.10032 -0.87354,-1.02635 -0.74079,-1.76519 -0.3919,-2.44227 l -1.44517,-0.92489 c -0.22624,-0.15694 -0.40236,-0.005 -0.40732,0.25744 l -0.1985,14.39738 -0.68649,25.62286 c -1.53854,0.62543 -2.93697,2.20734 -2.93697,3.97054 h 0.007 v 79.89954 h -0.007 c 0,2.32326 1.88372,4.20646 4.20698,4.20646 2.32326,0 4.20646,-1.8832 4.20646,-4.20646 h -0.007 v -79.89954 c -0.0252,-2.05351 -1.55257,-3.49371 -2.68138,-3.85532 l -0.5202,-25.74502 c 0.27803,-0.72203 0.68255,-1.33866 1.22515,-1.84021 z"
       id="path7865"
       sodipodi:nodetypes="ccccccccccccccscccccc" />
    <path
       sodipodi:nodetypes="cccccccccscccccccccccc"
       id="path7867"
       d="m 95.631647,214.88542 c -0.34267,-0.38673 -1.47476,-0.98193 -1.4744,-0.98336 -0.22624,-0.15694 -0.40236,-0.005 -0.40732,0.25744 l -0.1985,14.39738 -0.68649,25.62286 c -1.53854,0.62543 -2.93697,2.20734 -2.93697,3.97054 h 0.007 v 79.89952 h -0.007 c 0,2.32326 1.88372,4.20646 4.20698,4.20646 2.32326,0 4.20647,-1.8832 4.20647,-4.20646 h -0.007 v -79.89952 c -0.0252,-2.05351 -1.55258,-3.49371 -2.68139,-3.85532 l -0.5202,-25.74502 c 0.0567,-0.69061 0.25293,-1.28151 0.61822,-1.75169 -0.54249,-0.70388 -0.62595,-1.50152 0.32218,-2.24925 -0.69258,-1.24731 -0.0641,-1.80366 0.52107,-2.49728 -0.67518,-0.83461 -0.75626,-1.70522 0.0226,-2.62795 -0.57292,-0.46773 -1.36979,-0.85191 -0.55596,-2.1826 -0.60731,-0.6129 -1.18981,-1.16294 -0.42934,-2.35575 z"
       style="fill:#000000;fill-opacity:1;stroke:#000000;stroke-width:0.087;stroke-linejoin:round;stroke-miterlimit:4;stroke-dasharray:none;stroke-opacity:1"
       inkscape:connector-curvature="0" />
    <path
       inkscape:connector-curvature="0"
       style="fill:#000000;fill-opacity:1;stroke:#000000;stroke-width:0.08673356;stroke-miterlimit:4;stroke-dasharray:none;stroke-opacity:1"
       d="m 63.769507,219.07544 1.49685,-2.11369 c 0.20061,-0.23632 0.0696,-0.52734 -0.0242,-0.62108 l -2.48893,-2.88142 c -0.53068,-0.53997 -1.28992,-0.2045 -0.91045,0.61226 l 1.52781,2.16064 c 0.14998,0.24242 0.22355,0.49757 0.002,0.80184 0,0 -1.45427,1.63775 -1.4621,2.18893 l -0.49656,34.95695 c -1.53854,0.62543 -2.93697,2.20734 -2.93697,3.97054 h 0.007 v 79.89952 h -0.007 c 0,2.32326 1.88372,4.20646 4.20698,4.20646 2.32326,0 4.20647,-1.8832 4.20647,-4.20646 h -0.007 v -79.89952 c -0.0252,-2.05351 -1.55258,-3.49371 -2.68139,-3.85532 z"
       id="path7869"
       sodipodi:nodetypes="cccccccscccccsccccc" />
    <path
       inkscape:connector-curvature="0"
       style="fill:#000000;fill-opacity:1;stroke:#000000;stroke-width:0.087;stroke-linejoin:round;stroke-miterlimit:4;stroke-dasharray:none;stroke-opacity:1"
       d="m 80.079769,215.45592 c 0,0 -1.64839,-1.55243 -1.64803,-1.55387 -0.22624,-0.15693 -0.40236,-0.005 -0.40732,0.25745 l -0.1985,14.39738 -0.68649,25.62286 c -1.538535,0.62543 -2.936965,2.20734 -2.936965,3.97054 h 0.007 v 79.89952 h -0.007 c 0,2.32326 1.88372,4.20646 4.206975,4.20646 2.32326,0 4.20647,-1.8832 4.20647,-4.20646 h -0.007 v -79.89952 c -0.0252,-2.05351 -1.6518,-3.4441 -2.78061,-3.80571 l -0.58634,-25.79463 c 0.0567,-0.69061 0.71595,-1.38073 1.08124,-1.85091 -0.54249,-0.70388 -0.75825,-1.23694 0.18988,-1.98466 -0.76632,-0.73111 -1.09381,-1.57408 -0.50419,-2.29885 -1.01221,-0.99639 -0.96929,-2.20447 0.0888,-3.02483 -0.58963,-0.53456 -0.45228,-1.50615 0.50237,-2.27355 -0.82465,-0.64995 -0.60798,-1.3184 -0.52024,-1.66122 z"
       id="path7871"
       sodipodi:nodetypes="cccccccccsccccccccccc" />
    <path
       sodipodi:nodetypes="ccccccccccccccsccccccssc"
       id="path7873"
       d="m 47.779481,219.76995 c 0.0252,-1.18043 1.62914,-2.74208 1.62914,-2.74208 0.20061,-0.23632 0.0696,-0.62656 -0.0242,-0.7203 l -2.35664,-2.84834 c -0.53068,-0.53997 -1.38914,0.0435 -1.00967,0.86031 l 1.54435,2.07796 c 0.14998,0.24241 0.19047,0.46449 -0.0311,0.76876 0,0 -1.43245,1.60873 -1.47863,2.65195 l -0.0642,6.30247 -0.30011,28.05917 c -1.53854,0.62543 -2.93697,2.20734 -2.93697,3.97054 h 0.007 v 79.89953 h -0.007 c 0,2.32326 1.88372,4.20647 4.20698,4.20647 2.32326,0 4.20647,-1.88321 4.20647,-4.20646 h -0.007 v -79.89954 c -0.0252,-2.05351 -1.55258,-3.49371 -2.68139,-3.85532 l -0.57511,-28.20663 c 0.31053,-1.3545 0.94568,-1.75813 1.52796,-2.7618 0,0 0.11888,-0.38764 -0.0297,-0.56619 -0.51033,-0.61327 -1.63975,-2.07624 -1.62025,-2.9905 z"
       style="fill:#000000;fill-opacity:1;stroke:#000000;stroke-width:0.08673356;stroke-miterlimit:4;stroke-dasharray:none;stroke-opacity:1"
       inkscape:connector-curvature="0" />
    <path
       inkscape:connector-curvature="0"
       style="fill:#000000;fill-opacity:1;stroke:#000000;stroke-width:0.08673356;stroke-miterlimit:4;stroke-dasharray:none;stroke-opacity:1"
       d="m 32.053956,219.76995 c 0.0252,-1.18043 1.62914,-2.74208 1.62914,-2.74208 0.20061,-0.23632 0.0696,-0.62656 -0.0242,-0.7203 l -2.35664,-2.84834 c -0.53068,-0.53997 -1.38914,0.0435 -1.00967,0.86031 l 1.54435,2.07796 c 0.14998,0.24241 0.19047,0.46449 -0.0311,0.76876 0,0 -1.43245,1.60873 -1.47863,2.65195 l -0.13281,12.71881 -0.23148,21.64283 c -1.53854,0.62543 -2.93697,2.20734 -2.93697,3.97054 h 0.007 v 79.89953 h -0.007 c 0,2.32326 1.88372,4.20647 4.20698,4.20647 2.32326,0 4.20647,-1.88321 4.20647,-4.20646 h -0.007 v -79.89954 c -0.0252,-2.05351 -1.55258,-3.49371 -2.68139,-3.85532 l -0.60901,-21.79173 c 0.0933,-0.93254 1.44482,-2.5854 1.53498,-2.74369 0.0902,-0.15829 0.16265,-0.42029 0.0153,-0.63922 -0.14732,-0.21893 -1.57388,-1.74255 -1.51636,-3.03199 0.0575,-1.28945 0.94568,-1.75813 1.52796,-2.7618 0,0 0.11888,-0.38764 -0.0297,-0.56619 -0.51033,-0.61327 -1.63975,-2.07624 -1.62025,-2.9905 z"
       id="path7875"
       sodipodi:nodetypes="ccccccccccccccsccccczzzcssc" />
    <path
       sodipodi:nodetypes="ccccccccccccccsccccccczzzzcssc"
       id="path7877"
       d="m 16.328461,219.76995 c 0.0252,-1.18043 1.62914,-2.74208 1.62914,-2.74208 0.20061,-0.23632 0.0696,-0.62656 -0.0242,-0.7203 l -2.35664,-2.84834 c -0.53068,-0.53997 -1.38914,0.0435 -1.00967,0.86031 l 1.54435,2.07796 c 0.14998,0.24241 0.19047,0.46449 -0.0311,0.76876 0,0 -1.43245,1.60873 -1.47863,2.65195 l -0.0512,18.83735 -0.3131,15.52429 c -1.53854,0.62543 -2.93697,2.20734 -2.93697,3.97054 h 0.007 v 79.89953 h -0.007 c 0,2.32326 1.88372,4.20647 4.20698,4.20647 2.32326,0 4.20647,-1.88321 4.20647,-4.20646 h -0.007 v -79.89954 c -0.0252,-2.05351 -1.55258,-3.49371 -2.68139,-3.85532 l -0.43242,-15.47298 c -0.056,-0.70148 0.82223,-1.9132 1.38217,-2.54734 0.15517,-0.15902 0.34102,-0.51688 -0.004,-0.86124 0,0 -1.56871,-1.71629 -1.55513,-2.91017 0.0136,-1.19387 1.44482,-2.5854 1.53498,-2.74369 0.0902,-0.15829 0.16265,-0.42029 0.0153,-0.63922 -0.14732,-0.21893 -1.57388,-1.74255 -1.51636,-3.03199 0.0575,-1.28945 0.94568,-1.75813 1.52796,-2.7618 0,0 0.11888,-0.38764 -0.0297,-0.56619 -0.51033,-0.61327 -1.63975,-2.07624 -1.62025,-2.9905 z"
       style="fill:#000000;fill-opacity:1;stroke:#000000;stroke-width:0.08673356;stroke-miterlimit:4;stroke-dasharray:none;stroke-opacity:1"
       inkscape:connector-curvature="0" />
    <path
       inkscape:connector-curvature="0"
       style="fill:#000000;fill-opacity:1;stroke:#000000;stroke-width:0.08673356;stroke-miterlimit:4;stroke-dasharray:none;stroke-opacity:1"
       d="m 0.60285582,219.76995 c 0.0252,-1.18043 1.62913998,-2.74208 1.62913998,-2.74208 0.20061,-0.23632 0.0696,-0.62656 -0.0242,-0.7203 l -2.35663998,-2.84834 c -0.53068,-0.53997 -1.38914002,0.0435 -1.00967002,0.86031 l 1.54435002,2.07796 c 0.14998,0.24241 0.19047,0.46449 -0.0311,0.76876 0,0 -1.43245002,1.60873 -1.47863002,2.65195 l -0.0642,6.30247 0.0637,6.49902 -0.0506,6.03586 -0.3131,15.52429 c -1.53854,0.62543 -2.93697,2.20734 -2.93697,3.97054 h 0.007 v 79.89953 h -0.007 c 0,2.32326 1.88372,4.20647 4.20698002,4.20647 2.32325998,0 4.20646998,-1.88321 4.20646998,-4.20646 h -0.007 v -79.89954 c -0.0252,-2.05351 -1.55258,-3.49371 -2.68139,-3.85532 l -0.43241998,-15.47298 -0.17696,-6.31875 c 0.0136,-1.19387 1.44481998,-2.5854 1.53497998,-2.74369 0.0902,-0.15829 0.16265,-0.42029 0.0153,-0.63922 -0.14732,-0.21893 -1.57387998,-1.74255 -1.51635998,-3.03199 l -0.12199,-6.31849 z"
       id="path7879"
       sodipodi:nodetypes="ccccccccccccccccscccccczzccc" />
    <path
       inkscape:connector-curvature="0"
       style="fill:#000000;fill-opacity:1;stroke:#000000;stroke-width:0.08673356;stroke-miterlimit:4;stroke-dasharray:none;stroke-opacity:1"
       d="m -15.122649,219.76997 c 0.0252,-1.18043 1.62914,-2.74208 1.62914,-2.74208 0.20061,-0.23632 0.0696,-0.62656 -0.0242,-0.7203 l -2.35664,-2.84834 c -0.53068,-0.53997 -1.38914,0.0435 -1.00967,0.86031 l 1.54435,2.07796 c 0.14998,0.24241 0.19047,0.46449 -0.0311,0.76876 0,0 -1.43245,1.60873 -1.47863,2.65195 l -0.0511,18.83734 -0.3131,15.5243 c -1.53854,0.62543 -2.93697,2.20734 -2.93697,3.97054 h 0.007 v 79.89952 h -0.007 c 0,2.32326 1.88372,4.20646 4.20698,4.20646 2.32326,0 4.20647,-1.8832 4.20647,-4.20646 h -0.007 v -79.89952 c -0.0252,-2.05351 -1.55258,-3.49371 -2.68139,-3.85532 l -0.43242,-15.47298 c -0.056,-0.70148 0.82223,-1.9132 1.38217,-2.54734 0.15517,-0.15902 0.34102,-0.51688 -0.004,-0.86124 0,0 -1.56871,-1.71629 -1.55513,-2.91017 l 0.0339,-6.41491 c 0.0575,-1.28944 0.94568,-1.75812 1.52796,-2.76179 0,0 0.11888,-0.38764 -0.0297,-0.56619 -0.51033,-0.61327 -1.63975,-2.07624 -1.62025,-2.9905 z"
       id="path7881"
       sodipodi:nodetypes="ccccccccccccccsccccccccccssc" />
    <path
       inkscape:connector-curvature="0"
       style="fill:#000000;fill-opacity:1;stroke:#000000;stroke-width:0.08673356;stroke-miterlimit:4;stroke-dasharray:none;stroke-opacity:1"
       d="m -30.848055,219.76995 c 0.0252,-1.18043 1.62914,-2.74208 1.62914,-2.74208 0.20061,-0.23632 0.0696,-0.62656 -0.0242,-0.7203 l -2.35664,-2.84834 c -0.53068,-0.53997 -1.38914,0.0435 -1.00967,0.86031 l 1.54435,2.07796 c 0.14998,0.24241 0.19047,0.46449 -0.0311,0.76876 0,0 -1.43245,1.60873 -1.47863,2.65195 l -0.0642,6.30247 0.013,12.53488 -0.3131,15.52429 c -1.53854,0.62543 -2.93697,2.20734 -2.93697,3.97054 h 0.007 v 79.89953 h -0.007 c 0,2.32326 1.88372,4.20647 4.20698,4.20647 2.32326,0 4.20647,-1.88321 4.20647,-4.20646 h -0.007 v -79.89954 c -0.0252,-2.05351 -1.55258,-3.49371 -2.68139,-3.85532 l -0.43239,-15.47298 c -0.056,-0.70148 0.82223,-1.9132 1.38217,-2.54734 0.15517,-0.15902 0.34102,-0.51688 -0.004,-0.86124 0,0 -1.56871,-1.71629 -1.55513,-2.91017 0.0136,-1.19387 1.44482,-2.5854 1.53498,-2.74369 0.0902,-0.15829 0.16265,-0.42029 0.0153,-0.63922 -0.14732,-0.21893 -1.57388,-1.74255 -1.51636,-3.03199 l -0.12199,-6.31849 z"
       id="path7883"
       sodipodi:nodetypes="cccccccccccccccsccccccczzzccc" />
    <path
       sodipodi:nodetypes="cccccccccsccccccccc"
       id="path7885"
       d="m -45.60851,214.73658 c 0,0 -1.22672,-1.1721 -1.56536,-1.43811 -0.22624,-0.15694 -0.56772,0.10276 -0.57268,0.36493 l -0.43001,18.82914 -0.48805,21.68718 c -1.53854,0.62543 -2.93697,2.20734 -2.93697,3.97054 h 0.007 v 79.89954 h -0.007 c 0,2.32327 1.88372,4.20646 4.20698,4.20646 2.32326,0 4.20647,-1.8832 4.20647,-4.20646 h -0.007 v -79.89954 c -0.0252,-2.05351 -1.6518,-3.4441 -2.78061,-3.80571 l -0.45405,-22.55348 c -0.0236,-0.51544 0.46583,-1.3052 0.8334,-1.78368 -1.44956,-1.59625 -0.92315,-4.06678 0.0489,-5.09317 -1.63682,-1.89303 -0.93114,-4.03275 0.10354,-5.08366 -1.39986,-2.00288 -1.30362,-3.83455 -0.16455,-5.09398 z"
       style="fill:#000000;fill-opacity:1;stroke:#000000;stroke-width:0.087;stroke-linejoin:round;stroke-miterlimit:4;stroke-dasharray:none;stroke-opacity:1"
       inkscape:connector-curvature="0" />
    <path
       style="fill:#000000;fill-opacity:1;stroke:#000000;stroke-width:0.087;stroke-linejoin:round;stroke-miterlimit:4;stroke-dasharray:none;stroke-opacity:1"
       d="m -58.913895,338.0498 h -0.007 v -79.89952 c -0.0251,-2.0535 -1.6519,-3.44384 -2.78069,-3.80545 l -0.38126,-18.95763 c 0.0116,-0.38663 0.18848,-0.8482 0.51233,-0.84905 0.96743,-0.14152 1.70551,-0.97061 1.70551,-1.97855 v -18.22111 c 0,-1.108 -0.89188,-1.99988 -1.99988,-1.99988 h -2.51095 c -1.10802,0 -2.00041,0.89188 -2.00041,1.99988 v 18.22111 c 0,1.01074 0.74261,1.84163 1.71408,1.97972 0.5107,-0.0175 0.70935,0.31827 0.69564,0.82173 l -0.42378,18.81894 c -1.53855,0.62542 -2.93677,2.20709 -2.93677,3.97029 h 0.007 v 79.89952 h -0.007 c 0,2.32327 1.8837,4.20646 4.20695,4.20646 2.32328,0 4.20648,-1.8832 4.20648,-4.20646 z"
       id="path962"
       inkscape:connector-curvature="0"
       sodipodi:nodetypes="ccccccsssssscccccccsc" />
    <path
       sodipodi:nodetypes="czccccccccscccccc"
       id="path7855"
       d="m -133.9289,220.93276 c -0.17069,-3.69107 0.72566,-4.93199 1.55236,-5.94199 0.8267,-1.00999 -0.36302,-1.23718 -0.67389,-0.84251 -0.75979,0.61649 -2.08093,3.09789 -2.17997,6.45816 l -0.6011,32.80431 c -0.0559,0.6313 -0.0632,0.57816 -0.40562,0.92224 -1.36676,0.75299 -2.65578,2.25057 -2.65578,3.81743 h 0.007 v 79.89953 h -0.007 c 0,2.32326 1.88372,4.20646 4.20698,4.20646 2.32326,0 4.20647,-1.8832 4.20647,-4.20646 h -0.007 V 258.1504 c -0.0225,-1.83159 -1.53956,-3.30605 -2.70748,-3.86708 -0.41258,-0.2709 -0.594,-0.57802 -0.57279,-0.95916 z"
       style="fill:#000000;fill-opacity:1;stroke:#000000;stroke-width:0.08673356;stroke-miterlimit:4;stroke-dasharray:none;stroke-opacity:1"
       inkscape:connector-curvature="0" />
    <path
       inkscape:connector-curvature="0"
       style="fill:#000000;fill-opacity:1;stroke:#000000;stroke-width:0.08673356;stroke-miterlimit:4;stroke-dasharray:none;stroke-opacity:1"
       d="m -149.56818,220.11498 c 0.28206,-3.62378 0.91301,-3.25497 2.12094,-4.446 1.20793,-1.19103 -0.32136,-1.83426 -0.63223,-1.43959 -0.86195,0.3228 -3.03809,1.74896 -2.91298,5.99336 l -0.56456,33.18798 c -0.0559,0.6313 -0.0632,0.57817 -0.40562,0.92225 -1.36676,0.75298 -2.65578,2.25056 -2.65578,3.81743 h 0.007 v 79.89952 h -0.007 c 0,2.32326 1.88372,4.20646 4.20698,4.20646 2.32326,0 4.20647,-1.8832 4.20647,-4.20646 h -0.007 v -79.89952 c -0.0225,-1.83159 -1.53956,-3.30605 -2.70748,-3.86709 -0.41258,-0.27089 -0.594,-0.57801 -0.57279,-0.95915 z"
       id="path7891"
       sodipodi:nodetypes="czccccccccscccccc" />
    <path
       sodipodi:nodetypes="czzzccccccscccccc"
       id="path8604"
       d="m -165.50415,220.02143 c 0.0836,-2.4993 0.56124,-3.22758 1.66995,-4.48475 1.10871,-1.25718 0.0174,-1.71456 -0.63223,-1.43959 -0.64965,0.27496 -2.30331,2.64449 -2.41522,5.07327 -0.11192,2.42879 -0.40086,34.24036 -0.40086,34.24036 -0.0559,0.6313 -0.0632,0.57817 -0.40562,0.92225 -1.36676,0.75299 -2.65578,2.25056 -2.65578,3.81743 h 0.007 v 79.89953 h -0.007 c 0,2.32326 1.88372,4.20646 4.20698,4.20646 2.32326,0 4.20647,-1.8832 4.20647,-4.20646 h -0.007 V 258.1504 c -0.0225,-1.83159 -1.53956,-3.30605 -2.70748,-3.86708 -0.41258,-0.2709 -0.594,-0.57802 -0.57279,-0.95916 z"
       style="fill:#000000;fill-opacity:1;stroke:#000000;stroke-width:0.08673356;stroke-miterlimit:4;stroke-dasharray:none;stroke-opacity:1"
       inkscape:connector-curvature="0" />
    <path
       inkscape:connector-curvature="0"
       style="fill:#000000;fill-opacity:1;stroke:#000000;stroke-width:0.08673356;stroke-miterlimit:4;stroke-dasharray:none;stroke-opacity:1"
       d="m -180.80871,218.08039 c -0.01,-0.8272 0.94126,-2.01735 1.31331,-2.25138 0.15993,-0.1006 1.071,-0.74094 1.1192,-0.87413 0.16447,-0.4545 -0.2471,-0.87491 -0.51593,-1.12168 -0.10373,-0.0952 -0.91579,0.42071 -1.04256,0.47437 -0.64965,0.27497 -2.4904,1.59211 -2.64908,3.69349 -0.15868,2.10139 -0.42425,35.40967 -0.42425,35.40967 -0.0559,0.6313 -0.0632,0.57817 -0.40562,0.92224 -1.36676,0.75299 -2.65578,2.25057 -2.65578,3.81744 h 0.007 v 79.89952 h -0.007 c 0,2.32326 1.88372,4.20646 4.20698,4.20646 2.32326,0 4.20647,-1.8832 4.20647,-4.20646 h -0.007 v -79.89952 c -0.0225,-1.83159 -1.53956,-3.30606 -2.70748,-3.86709 -0.41258,-0.2709 -0.594,-0.57801 -0.57279,-0.95916 z"
       id="path8606"
       sodipodi:nodetypes="csssszccccccscccccc" />
    <path
       sodipodi:nodetypes="ccccssccccccscccccc"
       id="path8608"
       d="m -196.6528,217.20341 0.99542,-1.22048 c 0.17083,-0.2007 0.35518,-0.56669 -0.0228,-0.82269 l -2.12897,-1.40454 c -0.4896,-0.34077 -0.84502,0.0896 -0.85547,0.87193 l -0.0415,3.10885 c -0.0282,2.10718 -0.0274,35.67425 -0.0274,35.67425 -0.0559,0.6313 -0.0632,0.57817 -0.40562,0.92224 -1.36676,0.75299 -2.65578,2.25057 -2.65578,3.81744 h 0.007 v 79.89952 h -0.007 c 0,2.32326 1.88372,4.20646 4.20698,4.20646 2.32326,0 4.20646,-1.8832 4.20646,-4.20646 h -0.007 v -79.89952 c -0.0225,-1.83159 -1.53955,-3.30606 -2.70747,-3.86709 -0.41258,-0.2709 -0.594,-0.57801 -0.57279,-0.95915 z"
       style="fill:#000000;fill-opacity:1;stroke:#000000;stroke-width:0.08673356;stroke-miterlimit:4;stroke-dasharray:none;stroke-opacity:1"
       inkscape:connector-curvature="0" />
    <path
       inkscape:connector-curvature="0"
       style="fill:#000000;fill-opacity:1;stroke:#000000;stroke-width:0.08673356;stroke-miterlimit:4;stroke-dasharray:none;stroke-opacity:1"
       d="m -212.41593,218.2215 1.25228,-0.9231 c 0.17083,-0.2007 0.35518,-0.56669 -0.0228,-0.82269 l -2.23858,-2.24497 c -0.4896,-0.34077 -0.95464,-0.38546 -0.96509,0.3969 l -0.0415,3.10884 c -0.0282,2.10718 -0.0274,35.67425 -0.0274,35.67425 -0.0559,0.6313 -0.0632,0.57817 -0.40562,0.92225 -1.36676,0.75298 -2.65578,2.25056 -2.65578,3.81743 h 0.007 v 79.89952 h -0.007 c 0,2.32326 1.88372,4.20646 4.20698,4.20646 2.32325,0 4.20646,-1.8832 4.20646,-4.20646 h -0.007 v -79.89952 c -0.0225,-1.83159 -1.53956,-3.30606 -2.70748,-3.86709 -0.41258,-0.27089 -0.7767,-0.43185 -0.75549,-0.81299 l -0.0924,-34.58088 c -0.0359,-0.36938 -0.0249,-0.46276 0.25343,-0.66795 z"
       id="path881"
       sodipodi:nodetypes="ccccssccccccsccccccc" />
    <path
       inkscape:connector-curvature="0"
       style="fill:#000000;fill-opacity:1;stroke:#000000;stroke-width:0.08673356;stroke-miterlimit:4;stroke-dasharray:none;stroke-opacity:1"
       d="m -226.15302,216.40235 0.77579,-0.006 c 0.36462,0.0577 0.47145,-0.32123 0.36478,-0.56431 l -0.83706,-1.28827 c -0.2829,-0.39244 -0.42151,-0.42507 -0.85548,0.22598 -1.33405,2.00136 -1.68139,2.61584 -2.24315,4.57109 -0.25357,0.88257 -0.7188,3.59833 -0.82139,4.97147 -0.15701,2.10151 -0.415,29.09842 -0.415,29.09842 -0.0559,0.6313 -0.0632,0.57817 -0.40562,0.92225 -1.36676,0.75298 -2.65578,2.25056 -2.65578,3.81743 h 0.007 v 79.89952 h -0.007 c 0,2.32326 1.88372,4.20646 4.20698,4.20646 2.32326,0 4.20647,-1.8832 4.20647,-4.20646 h -0.007 v -79.89952 c -0.0225,-1.83159 -1.53956,-3.30606 -2.70748,-3.86709 -0.41258,-0.2709 -0.594,-0.57801 -0.57279,-0.95915 l -0.22436,-29.82635 c 0.20597,-2.88217 0.0234,-4.67647 2.19109,-7.09539 z"
       id="path883"
       sodipodi:nodetypes="ccccsssccccccsccccccc" />
    <path
       style="display:inline;opacity:1;fill:#000000;fill-opacity:1;stroke:#000000;stroke-width:0.087;stroke-linejoin:round;stroke-miterlimit:4;stroke-dasharray:none;stroke-opacity:1"
       d="m -240.55798,338.0498 h -0.007 v -79.89952 c -0.0225,-1.83159 -1.5394,-3.30592 -2.70732,-3.86695 -0.41257,-0.27089 -0.77671,-0.43173 -0.75552,-0.81287 l -0.0387,-35.86137 a 2.0153809,2.0153809 0 0 0 1.12704,-1.80816 2.0153809,2.0153809 0 0 0 -2.01538,-2.01538 2.0153809,2.0153809 0 0 0 -2.01538,2.01538 2.0153809,2.0153809 0 0 0 1.13379,1.80919 c -0.0238,6.0666 -0.0734,35.8004 -0.0734,35.8004 -0.0559,0.6313 -0.0633,0.57835 -0.40566,0.92242 -1.36678,0.75299 -2.65618,2.25047 -2.65618,3.81734 h 0.007 v 79.89952 h -0.007 c 0,2.32326 1.88423,4.20646 4.20749,4.20646 2.32328,0 4.20647,-1.8832 4.20647,-4.20646 z"
       id="path890"
       inkscape:connector-curvature="0" />
    <path
       style="display:inline;opacity:1;fill:#000000;fill-opacity:1;stroke:#000000;stroke-width:0.087;stroke-linejoin:round;stroke-miterlimit:4;stroke-dasharray:none;stroke-opacity:1"
       d="m -256.28343,338.0498 v 0 h -0.007 v -79.89952 c -0.0225,-1.83158 -1.53942,-3.30591 -2.70732,-3.86694 -0.41259,-0.2709 -0.77671,-0.43173 -0.75552,-0.81287 l -0.0341,-33.091 a 1.9001192,1.9001192 0 0 0 1.19683,-1.76424 1.9001192,1.9001192 0 0 0 -0.9679,-1.65209 v -0.44235 a 1.4616302,1.4616302 0 0 0 0.52917,-1.12087 1.4616302,1.4616302 0 0 0 -1.46143,-1.46192 1.4616302,1.4616302 0 0 0 -1.4614,1.46192 1.4616302,1.4616302 0 0 0 0.5302,1.12293 v 0.4408 a 1.9001192,1.9001192 0 0 0 -0.96893,1.65158 1.9001192,1.9001192 0 0 0 0.81957,1.5627 c -0.0254,9.25762 -0.0641,33.23259 -0.0641,33.23259 -0.0559,0.6313 -0.0633,0.57835 -0.40566,0.92243 -1.36678,0.75299 -2.65618,2.25047 -2.65618,3.81733 h 0.007 v 79.89952 h -0.007 c 0,2.32326 1.88423,4.20646 4.20749,4.20646 2.32328,0 4.20647,-1.8832 4.20647,-4.20646 z"
       id="path914"
       inkscape:connector-curvature="0" />
    <path
       sodipodi:nodetypes="ccccccccccccsccccccc"
       id="path928"
       d="m -273.84111,217.88232 c 0.32094,-0.41471 0.60094,-0.7242 1.1412,-0.86479 0.4377,-0.17983 0.5628,-0.72317 0.52921,-1.1855 -0.0525,-0.79394 -0.0358,-1.13729 -0.27068,-1.54405 -0.2829,-0.39245 -0.71383,-0.27891 -1.1478,0.37214 -2.051,2.89486 -3.11127,5.29188 -3.24725,9.06753 -0.15701,2.10151 -0.52462,29.68308 -0.52462,29.68308 -0.0559,0.6313 -0.0632,0.57816 -0.40562,0.92224 -1.36676,0.75299 -2.65578,2.25057 -2.65578,3.81743 h 0.007 v 79.89953 h -0.007 c 0,2.32326 1.88372,4.20646 4.20698,4.20646 2.32326,0 4.20647,-1.8832 4.20647,-4.20646 h -0.007 V 258.1504 c -0.0225,-1.83159 -1.53956,-3.30606 -2.70748,-3.86709 -0.41258,-0.2709 -0.594,-0.57801 -0.57279,-0.95915 l -0.22436,-29.82635 c 0.20597,-2.88217 0.80903,-4.27452 1.67952,-5.61549 z"
       style="fill:#000000;fill-opacity:1;stroke:#000000;stroke-width:0.08673356;stroke-miterlimit:4;stroke-dasharray:none;stroke-opacity:1"
       inkscape:connector-curvature="0" />
    <path
       inkscape:connector-curvature="0"
       style="fill:#000000;fill-opacity:1;stroke:#000000;stroke-width:0.08673356;stroke-miterlimit:4;stroke-dasharray:none;stroke-opacity:1"
       d="m -292.85426,223.32571 c -0.15701,2.10151 -0.23229,30.08502 -0.23229,30.08502 -0.0559,0.6313 -0.0632,0.57817 -0.40562,0.92224 -1.36676,0.75299 -2.65578,2.25057 -2.65578,3.81744 h 0.007 v 79.89952 h -0.007 c 0,2.32326 1.88372,4.20646 4.20698,4.20646 2.32326,0 4.20647,-1.8832 4.20647,-4.20646 h -0.007 V 258.1504 c -0.0225,-1.83159 -1.53956,-3.30605 -2.70748,-3.86708 -0.41258,-0.2709 -0.594,-0.57802 -0.57279,-0.95916 l 0.13979,-30.13987 c 0.0169,-0.35495 0.0968,-0.46275 0.20646,-0.62828 0.5392,-0.79632 1.08693,-1.37664 1.16616,-2.11205 0.16786,-1.55804 -1.09567,-2.4664 -1.14791,-3.51305 -0.0463,-0.92797 0.9533,-1.69252 1.09681,-1.96926 0.39033,-0.75275 -0.42938,-1.46197 -0.99796,-1.01499 -0.40003,0.31449 -1.59694,1.35711 -1.65705,2.79355 -0.0412,0.98466 1.18316,2.41323 0.96833,3.57111 -0.21251,1.14538 -1.46131,1.83649 -1.60712,3.01439 z"
       id="path930"
       sodipodi:nodetypes="cccccccscccccccssssssc" />
    <path
       sodipodi:nodetypes="cccccccscccccccsccccccsccssc"
       id="path932"
       d="m -308.57977,223.3257 c -0.0171,1.61441 -0.23229,30.08502 -0.23229,30.08502 -0.0559,0.6313 -0.0632,0.57817 -0.40562,0.92224 -1.36676,0.75299 -2.65578,2.25057 -2.65578,3.81744 h 0.007 v 79.89953 h -0.007 c 0,2.32326 1.88372,4.20646 4.20698,4.20646 2.32326,0 4.20647,-1.8832 4.20647,-4.20646 h -0.007 v -79.89954 c -0.0225,-1.83159 -1.53956,-3.30605 -2.70748,-3.86708 -0.41258,-0.2709 -0.594,-0.57802 -0.57279,-0.95916 l -0.13427,-32.0948 c 0.0169,-0.35495 0.18816,-0.51756 0.29782,-0.6831 0.82841,-1.07131 1.20271,-1.29614 1.2073,-1.77259 0.004,-0.46195 -0.30292,-0.75969 -0.53248,-1.07208 -0.40768,-0.52285 -0.17553,-0.98524 -0.002,-1.22299 0.51414,-0.57342 0.55346,-0.91931 0.4981,-1.45401 -0.16294,-0.56694 -0.77145,-1.23617 -1.16338,-0.9683 -0.1179,0.17523 -0.15502,0.44909 -0.0692,0.65091 0.27844,0.46489 0.26184,0.59064 0.0167,1.02262 -0.22687,0.36284 -0.48648,0.64271 -0.63921,1.10925 -0.0902,0.27553 0.0638,0.67636 0.33882,1.03705 0.38378,0.58613 0.25218,0.89161 -0.11162,1.2922 -0.71448,0.7178 -1.10752,1.10512 -1.33085,1.85438 -0.18357,0.61587 -0.20044,1.57686 -0.20812,2.30301 z"
       style="fill:#000000;fill-opacity:1;stroke:#000000;stroke-width:0.08673356;stroke-miterlimit:4;stroke-dasharray:none;stroke-opacity:1"
       inkscape:connector-curvature="0" />
    <path
       inkscape:connector-curvature="0"
       style="fill:#000000;fill-opacity:1;stroke:#000000;stroke-width:0.08673356;stroke-miterlimit:4;stroke-dasharray:none;stroke-opacity:1"
       d="m -324.30527,223.32571 c -0.0171,1.61441 -0.23229,30.08502 -0.23229,30.08502 -0.0559,0.6313 -0.0632,0.57817 -0.40562,0.92225 -1.36676,0.75298 -2.65578,2.25056 -2.65578,3.81743 h 0.007 v 79.89952 h -0.007 c 0,2.32326 1.88372,4.20646 4.20698,4.20646 2.32326,0 4.20647,-1.8832 4.20647,-4.20646 h -0.007 v -79.89952 c -0.0225,-1.83159 -1.53956,-3.30606 -2.70748,-3.86709 -0.41258,-0.2709 -0.594,-0.57801 -0.57279,-0.95915 0,0 -0.19359,-29.62837 -0.19665,-30.0397 -0.003,-0.41133 -0.0878,-1.65271 0.3602,-2.16976 0.44802,-0.51706 1.25528,-1.9169 -0.0228,-3.23225 -0.40768,-0.52284 -0.49535,-1.10411 -0.0149,-1.53305 0.48045,-0.42893 0.46988,-1.03928 0.30432,-1.42817 -0.16556,-0.38888 -0.258,-0.48794 -0.43858,-0.64051 -0.51412,-0.43436 -1.03611,-0.21093 -0.76818,0.60734 0.1592,0.3904 0.40836,0.58458 -0.15124,1.12597 -0.5596,0.54139 -0.84935,1.51225 -0.0808,2.31426 0.78427,0.66364 0.52348,1.4342 0.15968,1.8348 -0.95383,0.96546 -0.93766,1.9825 -0.98354,3.16261 z"
       id="path934"
       sodipodi:nodetypes="cccccccsccccczzczzsczccc" />
    <path
       sodipodi:nodetypes="cccccccsccccccssssssczssssscc"
       id="path936"
       d="m -339.93943,226.01145 c -0.0171,1.61441 -0.32364,27.39928 -0.32364,27.39928 -0.0559,0.6313 -0.0632,0.57816 -0.40562,0.92224 -1.36676,0.75299 -2.65578,2.25057 -2.65578,3.81744 h 0.007 v 79.89952 h -0.007 c 0,2.32326 1.88372,4.20646 4.20698,4.20646 2.32326,0 4.20647,-1.8832 4.20647,-4.20646 h -0.007 V 258.1504 c -0.0225,-1.83159 -1.53956,-3.30605 -2.70748,-3.86708 -0.41258,-0.2709 -0.594,-0.57802 -0.57279,-0.95916 0,0 -0.10224,-26.94262 -0.1053,-27.35395 -0.12949,-0.6015 0.1381,-1.50852 0.64862,-2.02053 0.77936,-0.78163 0.84416,-1.30152 0.187,-1.93226 -0.26458,-0.25395 -0.84292,-0.63773 0.084,-1.53763 0.39317,-0.38171 0.61601,-1.1103 -0.13052,-1.86447 -0.33786,-0.34131 -0.62417,-0.64813 0.14582,-1.53545 0.50905,-0.58658 1.01247,-1.15816 0.12772,-2.17676 -0.30359,-0.34952 -0.7921,-0.80059 -1.13017,-1.02433 -0.75739,-0.46094 -1.20436,0.39587 -0.56373,0.88118 0.64063,0.4853 1.25982,1.35509 0.38743,2.06458 -0.70071,0.56986 -0.8123,1.62809 -0.0819,2.1401 0.21576,0.15125 0.75147,0.81863 -0.0766,1.5236 -0.53039,0.45153 -0.69276,1.07078 -0.16429,1.68301 0.54814,0.63501 0.33272,1.06335 -0.14989,1.53721 -0.8751,0.85923 -1.00387,1.85111 -0.91938,2.30299 z"
       style="fill:#000000;fill-opacity:1;stroke:#000000;stroke-width:0.08673356;stroke-miterlimit:4;stroke-dasharray:none;stroke-opacity:1"
       inkscape:connector-curvature="0" />
    <path
       inkscape:connector-curvature="0"
       style="fill:#000000;fill-opacity:1;stroke:#000000;stroke-width:0.08673356;stroke-miterlimit:4;stroke-dasharray:none;stroke-opacity:1"
       d="m -355.87164,229.60297 c -0.0923,0.99568 -0.11693,23.80777 -0.11693,23.80777 -0.0559,0.6313 -0.0632,0.57816 -0.40562,0.92224 -1.36676,0.75299 -2.65578,2.25057 -2.65578,3.81743 h 0.007 v 79.89952 h -0.007 c 0,2.32326 1.88372,4.20646 4.20698,4.20646 2.32326,0 4.20647,-1.8832 4.20647,-4.20646 h -0.007 v -79.89952 c -0.0225,-1.83159 -1.53956,-3.30606 -2.70748,-3.86709 -0.41258,-0.2709 -0.57047,-0.53604 -0.55987,-0.72661 0.01,-0.17094 -0.10551,-22.04401 -0.0942,-22.91207 0.0113,-0.86807 -0.005,-1.16983 0.22543,-1.61212 0.22168,-0.41925 0.58128,-0.90743 1.00532,-1.41843 0.5362,-0.64615 0.40656,-1.28935 0.009,-1.72179 -0.37562,-0.40859 -0.83873,-0.82784 -1.47072,-1.49864 -0.63072,-0.66944 -0.42922,-1.35612 0.21071,-2.51338 l 1.9738,-3.56989 c 0.66019,-1.19405 0.59242,-1.83989 0.0409,-2.50293 -0.30359,-0.34953 -1.51558,-1.60158 -1.85365,-1.82532 -0.75739,-0.46094 -1.28187,0.99015 -0.64124,1.47545 l 0.90511,0.95089 c 0.20089,0.21104 0.3911,0.60671 0.0407,1.19292 -0.35043,0.58621 -1.68611,3.25333 -2.21224,4.18134 -0.52614,0.92801 -0.83282,2.25794 -0.0844,3.16997 0.23427,0.28533 0.87255,0.88851 1.1597,1.37721 0.24169,0.41133 0.27925,0.77532 -0.0348,1.25597 -0.3142,0.48066 -1.04829,1.0214 -1.14061,2.01708 z"
       id="path938"
       sodipodi:nodetypes="cccccccsccccszcssssscccszzsszzc" />
    <path
       sodipodi:nodetypes="cccccccsccccszzssssscccszzsszzc"
       id="path940"
       d="m -371.51963,229.97762 c -0.21309,1.11674 -0.19444,23.43311 -0.19444,23.43311 -0.0559,0.6313 -0.0632,0.57817 -0.40562,0.92224 -1.36676,0.75299 -2.65578,2.25057 -2.65578,3.81744 h 0.007 v 79.89952 h -0.007 c 0,2.32326 1.88372,4.20646 4.20698,4.20646 2.32326,0 4.20646,-1.8832 4.20646,-4.20646 h -0.007 v -79.89952 c -0.0225,-1.8316 -1.53955,-3.30606 -2.70747,-3.86709 -0.41258,-0.2709 -0.57047,-0.53604 -0.55987,-0.72661 0.01,-0.17094 -0.04,-21.1083 -0.0684,-22.21445 -0.0284,-1.10615 0.23874,-1.48126 0.48159,-1.82883 0.24286,-0.34756 1.32242,-1.27872 1.74645,-1.78972 0.5362,-0.64615 0.30632,-1.21518 0.009,-1.7218 -0.29339,-0.49993 -2.22726,-3.90639 -2.67655,-4.75076 -0.43205,-0.81197 -0.68499,-1.54051 0.21071,-2.51338 l 0.98682,-1.07182 c 0.92415,-1.00377 0.37722,-1.45789 -0.17432,-2.12093 -0.30359,-0.34953 -1.02595,-1.17471 -1.36402,-1.39845 -0.72085,-0.69846 -1.77517,0.33241 -1.00665,1.23794 l 0.84808,0.94239 c 0.19491,0.2166 0.46865,0.52921 0.002,1.02498 -0.4667,0.49578 -0.67994,0.57553 -1.28358,1.4131 -0.60365,0.83758 -0.59523,1.15411 -0.0586,2.20478 0.44438,0.86998 2.29764,4.54259 2.58479,5.03129 0.24169,0.41133 0.42565,0.74543 -0.0348,1.25597 -0.46045,0.51054 -1.87271,1.60386 -2.0858,2.7206 z"
       style="fill:#000000;fill-opacity:1;stroke:#000000;stroke-width:0.08673356;stroke-miterlimit:4;stroke-dasharray:none;stroke-opacity:1"
       inkscape:connector-curvature="0" />
    <path
       inkscape:connector-curvature="0"
       style="fill:#000000;fill-opacity:1;stroke:#000000;stroke-width:0.08673356;stroke-miterlimit:4;stroke-dasharray:none;stroke-opacity:1"
       d="m -384.66459,218.70158 c -0.26164,-0.21317 -0.7323,-0.62444 -0.75536,-0.96457 -0.0319,-0.46995 0.46692,-0.78915 0.63629,-0.93191 0.24138,-0.20347 0.3095,-0.49361 -0.0228,-0.8227 l -1.70875,-1.80648 c -0.4896,-0.34077 -0.84339,0.0896 -0.85547,0.87193 l -0.0415,2.68863 c -0.0325,2.10711 -0.0274,35.67425 -0.0274,35.67425 -0.0559,0.6313 -0.0632,0.57816 -0.40562,0.92224 -1.36676,0.75299 -2.65578,2.25057 -2.65578,3.81744 h 0.007 v 79.89952 h -0.007 c 0,2.32326 1.88372,4.20646 4.20698,4.20646 2.32326,0 4.20646,-1.8832 4.20646,-4.20646 h -0.007 v -79.89952 c -0.0225,-1.83159 -1.53955,-3.30606 -2.70747,-3.86709 -0.41258,-0.2709 -0.594,-0.57802 -0.57279,-0.95915 l 0.008,-17.42121 c 0.0242,-0.49252 0.39843,-0.87812 0.83722,-1.32722 0.43878,-0.44911 1.03388,-1.00946 0.10516,-1.80253 -0.92872,-0.79307 -0.53017,-1.39606 -0.2086,-1.81458 0.32157,-0.41852 0.94511,-0.7596 -0.0673,-1.60224 -1.01241,-0.84264 -0.77883,-1.41433 -0.44303,-1.69547 0.3358,-0.28114 1.21033,-1.00313 0.29606,-1.87924 -0.91427,-0.87611 -0.57091,-1.21864 0.24511,-1.84509 0.81602,-0.62645 0.64653,-1.08947 0.12722,-1.61393 -0.51931,-0.52447 -1.07245,-0.99737 -0.12862,-1.91843 0.94383,-0.92106 0.56213,-1.19494 -0.061,-1.70265 z"
       id="path942"
       sodipodi:nodetypes="cssccssccccccscccccczzzzzzzzzsc" />
    <path
       style="display:inline;opacity:1;fill:#000000;fill-opacity:1;stroke:#000000;stroke-width:0.09507111;stroke-linejoin:round;stroke-miterlimit:4;stroke-dasharray:none;stroke-opacity:1"
       d="m -114.75424,338.04576 h -0.007 v -79.89951 c -0.0225,-1.83159 -1.53941,-3.30592 -2.70733,-3.86695 -0.41258,-0.2709 -0.59378,-0.57798 -0.57257,-0.95911 l -0.0363,-23.1275 c -0.027,-0.46234 0.3608,-0.83142 0.73185,-1.04661 0.72396,-0.35824 1.23101,-1.20991 1.23101,-2.2093 v -10.01489 c 0,-1.32499 -0.89086,-2.39158 -1.99729,-2.39158 h -1.69809 c -1.10643,0 -1.99678,1.06659 -1.99678,2.39158 v 10.01489 c 0.20119,0.98041 0.63147,1.80652 1.29457,2.17984 0.43494,0.1409 0.74428,0.90682 0.75494,1.13447 l -0.23206,23.08563 c -0.0559,0.6313 -0.18003,0.64811 -0.52245,0.99219 -1.36676,0.75299 -2.65565,2.25047 -2.65565,3.81734 h 0.007 v 79.89951 h -0.007 c 0,2.32326 1.88372,4.20646 4.20698,4.20646 2.32326,0 4.20646,-1.8832 4.20646,-4.20646 z"
       id="rect944"
       inkscape:connector-curvature="0"
       sodipodi:nodetypes="cccccccssssscccccccccscc" />
    <path
       inkscape:connector-curvature="0"
       style="fill:#000000;fill-opacity:1;stroke:#000000;stroke-width:0.08673356;stroke-miterlimit:4;stroke-dasharray:none;stroke-opacity:1"
       d="m -102.52957,220.67442 c 0.0321,-1.48514 -1.2321,-1.41061 -1.24982,-0.068 l -0.6011,32.80431 c -0.0559,0.6313 -0.0632,0.57816 -0.40562,0.92224 -1.36676,0.75299 -2.65578,2.25057 -2.65578,3.81744 h 0.007 v 79.89952 h -0.007 c 0,2.32326 1.88372,4.20646 4.20698,4.20646 2.32326,0 4.206469,-1.8832 4.206469,-4.20646 h -0.007 v -79.89952 c -0.0225,-1.83159 -1.539559,-3.30606 -2.707479,-3.86709 -0.41258,-0.2709 -0.594,-0.57802 -0.57279,-0.95915 z"
       id="path972"
       sodipodi:nodetypes="ccccccccscccccc" />
    <path
       inkscape:connector-curvature="0"
       id="path5520"
       d="m 183.76483,351.69201 v 8.84506 H -73.683991 v -7.96056"
       style="fill:none;stroke:#000000;stroke-width:2.16788864;stroke-linecap:butt;stroke-linejoin:miter;stroke-miterlimit:4;stroke-dasharray:none;stroke-opacity:1" />
    <path
       style="fill:none;stroke:#000000;stroke-width:2.35547113;stroke-linecap:butt;stroke-linejoin:miter;stroke-miterlimit:4;stroke-dasharray:none;stroke-opacity:1"
       d="m -88.416941,351.57574 v 8.73288 H -396.25036 v -7.8596"
       id="path5522"
       inkscape:connector-curvature="0" />
    <text
       id="text5530"
       y="371.38437"
       x="-10.642908"
       style="font-style:normal;font-weight:normal;font-size:10.58333302px;line-height:1.25;font-family:sans-serif;letter-spacing:0px;word-spacing:0px;fill:#000000;fill-opacity:1;stroke:none;stroke-width:0.26458332"
       xml:space="preserve"><tspan
         style="stroke-width:0.26458332"
         y="371.38437"
         x="-10.642908"
         id="tspan5528"
         sodipodi:role="line">Meduium Tapered Shank</tspan></text>
    <text
       xml:space="preserve"
       style="font-style:normal;font-weight:normal;font-size:10.58333302px;line-height:1.25;font-family:sans-serif;letter-spacing:0px;word-spacing:0px;fill:#000000;fill-opacity:1;stroke:none;stroke-width:0.26458332"
       x="-272.1897"
       y="371.38437"
       id="text5534"><tspan
         sodipodi:role="line"
         id="tspan5532"
         x="-272.1897"
         y="371.38437"
         style="stroke-width:0.26458332">Slim Shank</tspan></text>
    <text
       xml:space="preserve"
       style="font-style:normal;font-weight:normal;font-size:10.58333302px;line-height:1.25;font-family:sans-serif;letter-spacing:0px;word-spacing:0px;fill:#000000;fill-opacity:1;stroke:none;stroke-width:0.26458332"
       x="-389.754"
       y="356.27298"
       id="text5716"><tspan
         sodipodi:role="line"
         id="tspan5714"
         x="-389.754"
         y="356.27298"
         style="stroke-width:0.26458332">1</tspan></text>
    <text
       id="text5739"
       y="356.34274"
       x="-373.79337"
       style="font-style:normal;font-weight:normal;font-size:10.58333302px;line-height:1.25;font-family:sans-serif;letter-spacing:0px;word-spacing:0px;fill:#000000;fill-opacity:1;stroke:none;stroke-width:0.26458332"
       xml:space="preserve"><tspan
         style="stroke-width:0.26458332"
         y="356.34274"
         x="-373.79337"
         id="tspan5737"
         sodipodi:role="line">2</tspan></text>
    <text
       xml:space="preserve"
       style="font-style:normal;font-weight:normal;font-size:10.58333302px;line-height:1.25;font-family:sans-serif;letter-spacing:0px;word-spacing:0px;fill:#000000;fill-opacity:1;stroke:none;stroke-width:0.26458332"
       x="-358.1893"
       y="356.26782"
       id="text5743"><tspan
         sodipodi:role="line"
         id="tspan5741"
         x="-358.1893"
         y="356.26782"
         style="stroke-width:0.26458332">3</tspan></text>
    <text
       id="text5747"
       y="356.27298"
       x="-342.44571"
       style="font-style:normal;font-weight:normal;font-size:10.58333302px;line-height:1.25;font-family:sans-serif;letter-spacing:0px;word-spacing:0px;fill:#000000;fill-opacity:1;stroke:none;stroke-width:0.26458332"
       xml:space="preserve"><tspan
         style="stroke-width:0.26458332"
         y="356.27298"
         x="-342.44571"
         id="tspan5745"
         sodipodi:role="line">4</tspan></text>
    <text
       xml:space="preserve"
       style="font-style:normal;font-weight:normal;font-size:10.58333302px;line-height:1.25;font-family:sans-serif;letter-spacing:0px;word-spacing:0px;fill:#000000;fill-opacity:1;stroke:none;stroke-width:0.26458332"
       x="-326.70471"
       y="356.19806"
       id="text5751"><tspan
         sodipodi:role="line"
         id="tspan5749"
         x="-326.70471"
         y="356.19806"
         style="stroke-width:0.26458332">5</tspan></text>
    <text
       id="text5755"
       y="356.26782"
       x="-311.06964"
       style="font-style:normal;font-weight:normal;font-size:10.58333302px;line-height:1.25;font-family:sans-serif;letter-spacing:0px;word-spacing:0px;fill:#000000;fill-opacity:1;stroke:none;stroke-width:0.26458332"
       xml:space="preserve"><tspan
         style="stroke-width:0.26458332"
         y="356.26782"
         x="-311.06964"
         id="tspan5753"
         sodipodi:role="line">6</tspan></text>
    <text
       id="text5759"
       y="356.27298"
       x="-295.28986"
       style="font-style:normal;font-weight:normal;font-size:10.58333302px;line-height:1.25;font-family:sans-serif;letter-spacing:0px;word-spacing:0px;fill:#000000;fill-opacity:1;stroke:none;stroke-width:0.26458332"
       xml:space="preserve"><tspan
         style="stroke-width:0.26458332"
         y="356.27298"
         x="-295.28986"
         id="tspan5757"
         sodipodi:role="line">7</tspan></text>
    <text
       xml:space="preserve"
       style="font-style:normal;font-weight:normal;font-size:10.58333302px;line-height:1.25;font-family:sans-serif;letter-spacing:0px;word-spacing:0px;fill:#000000;fill-opacity:1;stroke:none;stroke-width:0.26458332"
       x="-279.57986"
       y="356.26782"
       id="text5763"><tspan
         sodipodi:role="line"
         id="tspan5761"
         x="-279.57986"
         y="356.26782"
         style="stroke-width:0.26458332">8</tspan></text>
    <text
       id="text5767"
       y="356.26782"
       x="-263.81818"
       style="font-style:normal;font-weight:normal;font-size:10.58333302px;line-height:1.25;font-family:sans-serif;letter-spacing:0px;word-spacing:0px;fill:#000000;fill-opacity:1;stroke:none;stroke-width:0.26458332"
       xml:space="preserve"><tspan
         style="stroke-width:0.26458332"
         y="356.26782"
         x="-263.81818"
         id="tspan5765"
         sodipodi:role="line">9</tspan></text>
    <text
       xml:space="preserve"
       style="font-style:normal;font-weight:normal;font-size:10.58333302px;line-height:1.25;font-family:sans-serif;letter-spacing:0px;word-spacing:0px;fill:#000000;fill-opacity:1;stroke:none;stroke-width:0.26458332"
       x="-251.23593"
       y="356.26782"
       id="text5771"><tspan
         sodipodi:role="line"
         id="tspan5769"
         x="-251.23593"
         y="356.26782"
         style="letter-spacing:-0.98954165px;stroke-width:0.26458332">10</tspan></text>
    <text
       id="text5831"
       y="356.27298"
       x="-235.37347"
       style="font-style:normal;font-weight:normal;font-size:10.58333302px;line-height:1.25;font-family:sans-serif;letter-spacing:0px;word-spacing:0px;fill:#000000;fill-opacity:1;stroke:none;stroke-width:0.26458332"
       xml:space="preserve"><tspan
         style="letter-spacing:-0.98954165px;stroke-width:0.26458332"
         y="356.27298"
         x="-235.37347"
         id="tspan5829"
         sodipodi:role="line">11</tspan></text>
    <text
       id="text5835"
       y="356.34274"
       x="-219.60663"
       style="font-style:normal;font-weight:normal;font-size:10.58333302px;line-height:1.25;font-family:sans-serif;letter-spacing:0px;word-spacing:0px;fill:#000000;fill-opacity:1;stroke:none;stroke-width:0.26458332"
       xml:space="preserve"><tspan
         style="letter-spacing:-0.98954165px;stroke-width:0.26458332"
         y="356.34274"
         x="-219.60663"
         id="tspan5833"
         sodipodi:role="line">12</tspan></text>
    <text
       xml:space="preserve"
       style="font-style:normal;font-weight:normal;font-size:10.58333302px;line-height:1.25;font-family:sans-serif;letter-spacing:0px;word-spacing:0px;fill:#000000;fill-opacity:1;stroke:none;stroke-width:0.26458332"
       x="-203.98706"
       y="356.26782"
       id="text5839"><tspan
         sodipodi:role="line"
         id="tspan5837"
         x="-203.98706"
         y="356.26782"
         style="letter-spacing:-0.98954165px;stroke-width:0.26458332">13</tspan></text>
    <text
       id="text5843"
       y="356.27298"
       x="-188.38817"
       style="font-style:normal;font-weight:normal;font-size:10.58333302px;line-height:1.25;font-family:sans-serif;letter-spacing:0px;word-spacing:0px;fill:#000000;fill-opacity:1;stroke:none;stroke-width:0.26458332"
       xml:space="preserve"><tspan
         style="letter-spacing:-0.98954165px;stroke-width:0.26458332"
         y="356.27298"
         x="-188.38817"
         id="tspan5841"
         sodipodi:role="line">14</tspan></text>
    <text
       xml:space="preserve"
       style="font-style:normal;font-weight:normal;font-size:10.58333302px;line-height:1.25;font-family:sans-serif;letter-spacing:0px;word-spacing:0px;fill:#000000;fill-opacity:1;stroke:none;stroke-width:0.26458332"
       x="-172.4973"
       y="356.19806"
       id="text5847"><tspan
         sodipodi:role="line"
         id="tspan5845"
         x="-172.4973"
         y="356.19806"
         style="letter-spacing:-0.98954165px;stroke-width:0.26458332">15</tspan></text>
    <text
       xml:space="preserve"
       style="font-style:normal;font-weight:normal;font-size:10.58333302px;line-height:1.25;font-family:sans-serif;letter-spacing:0px;word-spacing:0px;fill:#000000;fill-opacity:1;stroke:none;stroke-width:0.26458332"
       x="-156.90099"
       y="356.26782"
       id="text5851"><tspan
         sodipodi:role="line"
         id="tspan5849"
         x="-156.90099"
         y="356.26782"
         style="letter-spacing:-0.98954165px;stroke-width:0.26458332">16</tspan></text>
    <text
       id="text5855"
       y="356.27298"
       x="-141.05663"
       style="font-style:normal;font-weight:normal;font-size:10.58333302px;line-height:1.25;font-family:sans-serif;letter-spacing:0px;word-spacing:0px;fill:#000000;fill-opacity:1;stroke:none;stroke-width:0.26458332"
       xml:space="preserve"><tspan
         style="letter-spacing:-0.98954165px;stroke-width:0.26458332"
         y="356.27298"
         x="-141.05663"
         id="tspan5853"
         sodipodi:role="line">17</tspan></text>
    <text
       id="text5859"
       y="356.26782"
       x="-125.42155"
       style="font-style:normal;font-weight:normal;font-size:10.58333302px;line-height:1.25;font-family:sans-serif;letter-spacing:0px;word-spacing:0px;fill:#000000;fill-opacity:1;stroke:none;stroke-width:0.26458332"
       xml:space="preserve"><tspan
         style="letter-spacing:-0.98954165px;stroke-width:0.26458332"
         y="356.26782"
         x="-125.42155"
         id="tspan5857"
         sodipodi:role="line">18</tspan></text>
    <text
       id="text5863"
       y="356.26782"
       x="-109.68571"
       style="font-style:normal;font-weight:normal;font-size:10.58333302px;line-height:1.25;font-family:sans-serif;letter-spacing:0px;word-spacing:0px;fill:#000000;fill-opacity:1;stroke:none;stroke-width:0.26458332"
       xml:space="preserve"><tspan
         style="letter-spacing:-0.98954165px;stroke-width:0.26458332"
         y="356.26782"
         x="-109.68571"
         id="tspan5861"
         sodipodi:role="line">19</tspan></text>
    <text
       id="text5887"
       y="356.27298"
       x="-66.580093"
       style="font-style:normal;font-weight:normal;font-size:10.58333302px;line-height:1.25;font-family:sans-serif;letter-spacing:0px;word-spacing:0px;fill:#000000;fill-opacity:1;stroke:none;stroke-width:0.26458332"
       xml:space="preserve"><tspan
         style="stroke-width:0.26458332"
         y="356.27298"
         x="-66.580093"
         id="tspan5885"
         sodipodi:role="line">1</tspan></text>
    <text
       xml:space="preserve"
       style="font-style:normal;font-weight:normal;font-size:10.58333302px;line-height:1.25;font-family:sans-serif;letter-spacing:0px;word-spacing:0px;fill:#000000;fill-opacity:1;stroke:none;stroke-width:0.26458332"
       x="-50.619465"
       y="356.34274"
       id="text5891"><tspan
         sodipodi:role="line"
         id="tspan5889"
         x="-50.619465"
         y="356.34274"
         style="stroke-width:0.26458332">2</tspan></text>
    <text
       id="text5895"
       y="356.26782"
       x="-35.0154"
       style="font-style:normal;font-weight:normal;font-size:10.58333302px;line-height:1.25;font-family:sans-serif;letter-spacing:0px;word-spacing:0px;fill:#000000;fill-opacity:1;stroke:none;stroke-width:0.26458332"
       xml:space="preserve"><tspan
         style="stroke-width:0.26458332"
         y="356.26782"
         x="-35.0154"
         id="tspan5893"
         sodipodi:role="line">3</tspan></text>
    <text
       xml:space="preserve"
       style="font-style:normal;font-weight:normal;font-size:10.58333302px;line-height:1.25;font-family:sans-serif;letter-spacing:0px;word-spacing:0px;fill:#000000;fill-opacity:1;stroke:none;stroke-width:0.26458332"
       x="-19.271807"
       y="356.27298"
       id="text5899"><tspan
         sodipodi:role="line"
         id="tspan5897"
         x="-19.271807"
         y="356.27298"
         style="stroke-width:0.26458332">4</tspan></text>
    <text
       id="text5903"
       y="356.19806"
       x="-3.5307984"
       style="font-style:normal;font-weight:normal;font-size:10.58333302px;line-height:1.25;font-family:sans-serif;letter-spacing:0px;word-spacing:0px;fill:#000000;fill-opacity:1;stroke:none;stroke-width:0.26458332"
       xml:space="preserve"><tspan
         style="stroke-width:0.26458332"
         y="356.19806"
         x="-3.5307984"
         id="tspan5901"
         sodipodi:role="line">5</tspan></text>
    <text
       xml:space="preserve"
       style="font-style:normal;font-weight:normal;font-size:10.58333302px;line-height:1.25;font-family:sans-serif;letter-spacing:0px;word-spacing:0px;fill:#000000;fill-opacity:1;stroke:none;stroke-width:0.26458332"
       x="12.104273"
       y="356.26782"
       id="text5907"><tspan
         sodipodi:role="line"
         id="tspan5905"
         x="12.104273"
         y="356.26782"
         style="stroke-width:0.26458332">6</tspan></text>
    <text
       xml:space="preserve"
       style="font-style:normal;font-weight:normal;font-size:10.58333302px;line-height:1.25;font-family:sans-serif;letter-spacing:0px;word-spacing:0px;fill:#000000;fill-opacity:1;stroke:none;stroke-width:0.26458332"
       x="27.884039"
       y="356.27298"
       id="text5911"><tspan
         sodipodi:role="line"
         id="tspan5909"
         x="27.884039"
         y="356.27298"
         style="stroke-width:0.26458332">7</tspan></text>
    <text
       id="text5915"
       y="356.26782"
       x="43.59404"
       style="font-style:normal;font-weight:normal;font-size:10.58333302px;line-height:1.25;font-family:sans-serif;letter-spacing:0px;word-spacing:0px;fill:#000000;fill-opacity:1;stroke:none;stroke-width:0.26458332"
       xml:space="preserve"><tspan
         style="stroke-width:0.26458332"
         y="356.26782"
         x="43.59404"
         id="tspan5913"
         sodipodi:role="line">8</tspan></text>
    <text
       xml:space="preserve"
       style="font-style:normal;font-weight:normal;font-size:10.58333302px;line-height:1.25;font-family:sans-serif;letter-spacing:0px;word-spacing:0px;fill:#000000;fill-opacity:1;stroke:none;stroke-width:0.26458332"
       x="59.355721"
       y="356.26782"
       id="text5919"><tspan
         sodipodi:role="line"
         id="tspan5917"
         x="59.355721"
         y="356.26782"
         style="stroke-width:0.26458332">9</tspan></text>
    <text
       id="text5923"
       y="356.26782"
       x="71.937973"
       style="font-style:normal;font-weight:normal;font-size:10.58333302px;line-height:1.25;font-family:sans-serif;letter-spacing:0px;word-spacing:0px;fill:#000000;fill-opacity:1;stroke:none;stroke-width:0.26458332"
       xml:space="preserve"><tspan
         style="letter-spacing:-0.98954165px;stroke-width:0.26458332"
         y="356.26782"
         x="71.937973"
         id="tspan5921"
         sodipodi:role="line">10</tspan></text>
    <text
       xml:space="preserve"
       style="font-style:normal;font-weight:normal;font-size:10.58333302px;line-height:1.25;font-family:sans-serif;letter-spacing:0px;word-spacing:0px;fill:#000000;fill-opacity:1;stroke:none;stroke-width:0.26458332"
       x="87.800423"
       y="356.27298"
       id="text5927"><tspan
         sodipodi:role="line"
         id="tspan5925"
         x="87.800423"
         y="356.27298"
         style="letter-spacing:-0.98954165px;stroke-width:0.26458332">11</tspan></text>
    <text
       xml:space="preserve"
       style="font-style:normal;font-weight:normal;font-size:10.58333302px;line-height:1.25;font-family:sans-serif;letter-spacing:0px;word-spacing:0px;fill:#000000;fill-opacity:1;stroke:none;stroke-width:0.26458332"
       x="103.56727"
       y="356.34274"
       id="text5931"><tspan
         sodipodi:role="line"
         id="tspan5929"
         x="103.56727"
         y="356.34274"
         style="letter-spacing:-0.98954165px;stroke-width:0.26458332">12</tspan></text>
    <text
       id="text5935"
       y="356.26782"
       x="119.18684"
       style="font-style:normal;font-weight:normal;font-size:10.58333302px;line-height:1.25;font-family:sans-serif;letter-spacing:0px;word-spacing:0px;fill:#000000;fill-opacity:1;stroke:none;stroke-width:0.26458332"
       xml:space="preserve"><tspan
         style="letter-spacing:-0.98954165px;stroke-width:0.26458332"
         y="356.26782"
         x="119.18684"
         id="tspan5933"
         sodipodi:role="line">13</tspan></text>
    <text
       xml:space="preserve"
       style="font-style:normal;font-weight:normal;font-size:10.58333302px;line-height:1.25;font-family:sans-serif;letter-spacing:0px;word-spacing:0px;fill:#000000;fill-opacity:1;stroke:none;stroke-width:0.26458332"
       x="134.78574"
       y="356.27298"
       id="text5939"><tspan
         sodipodi:role="line"
         id="tspan5937"
         x="134.78574"
         y="356.27298"
         style="letter-spacing:-0.98954165px;stroke-width:0.26458332">14</tspan></text>
    <text
       id="text5943"
       y="356.19806"
       x="150.67661"
       style="font-style:normal;font-weight:normal;font-size:10.58333302px;line-height:1.25;font-family:sans-serif;letter-spacing:0px;word-spacing:0px;fill:#000000;fill-opacity:1;stroke:none;stroke-width:0.26458332"
       xml:space="preserve"><tspan
         style="letter-spacing:-0.98954165px;stroke-width:0.26458332"
         y="356.19806"
         x="150.67661"
         id="tspan5941"
         sodipodi:role="line">15</tspan></text>
    <text
       id="text5947"
       y="356.26782"
       x="166.27292"
       style="font-style:normal;font-weight:normal;font-size:10.58333302px;line-height:1.25;font-family:sans-serif;letter-spacing:0px;word-spacing:0px;fill:#000000;fill-opacity:1;stroke:none;stroke-width:0.26458332"
       xml:space="preserve"><tspan
         style="letter-spacing:-0.98954165px;stroke-width:0.26458332"
         y="356.26782"
         x="166.27292"
         id="tspan5945"
         sodipodi:role="line">16</tspan></text>
    <g
       id="g6244"
       transform="translate(-21.695841)">
      <path
         inkscape:connector-curvature="0"
         style="fill:#000000;fill-opacity:1;stroke:#000000;stroke-width:0.08673356;stroke-miterlimit:4;stroke-dasharray:none;stroke-opacity:1"
         d="m 370.55291,257.96553 c -0.56126,-13.63185 -1.81573,-40.00586 -1.68379,-40.89553 0.13193,-0.88967 0.3099,-1.07396 0.49967,-1.35843 0.55443,-0.83111 -0.37065,-1.25206 -0.90645,-0.68346 -0.40166,0.42625 -0.65909,0.76579 -0.87428,2.06528 -0.21518,1.29948 -1.14591,40.87267 -1.14591,40.87267 -1.53854,0.62542 -2.11016,1.99236 -2.11016,3.75557 h 0.007 v 79.89951 h -0.007 c 0,2.32326 1.88372,4.20646 4.20698,4.20646 2.32326,0 4.20646,-1.8832 4.20646,-4.20646 h -0.007 v -79.89951 c -0.0252,-2.05352 -1.05649,-3.39449 -2.1853,-3.7561 z"
         id="path6913"
         sodipodi:nodetypes="czsszcccccscccc" />
      <path
         inkscape:connector-curvature="0"
         style="fill:#000000;fill-opacity:1;stroke:#000000;stroke-width:0.08673356;stroke-miterlimit:4;stroke-dasharray:none;stroke-opacity:1"
         d="m 341.2939,262.11382 c 0,-1.76338 -0.5567,-3.40287 -2.09548,-4.02818 -0.30124,-13.28993 -1.83216,-26.96198 -1.78593,-40.26111 0.14456,-1.65654 2.00062,-2.4624 1.07203,-3.25718 -1.01927,-0.92439 -2.46,1.65316 -2.44973,3.48869 l -0.99219,39.96345 c -1.53853,0.62543 -2.16162,2.33112 -2.16162,4.09433 h 0.007 v 79.89951 h -0.007 c 0,2.32326 1.88371,4.20646 4.20697,4.20646 2.32326,0 4.20647,-1.8832 4.20647,-4.20646 h -0.007 v -79.89951 z"
         id="path6917"
         sodipodi:nodetypes="ccccccccccscccc" />
      <path
         inkscape:connector-curvature="0"
         style="fill:#000000;fill-opacity:1;stroke:#000000;stroke-width:0.08673356;stroke-miterlimit:4;stroke-dasharray:none;stroke-opacity:1"
         d="m 309.84289,261.92072 c 0,-1.76338 -0.71169,-3.20042 -2.25047,-3.82573 0.0499,-13.30392 -1.44356,-34.41518 -1.26969,-35.06916 0.18126,-0.4729 1.59122,-1.44755 1.52738,-1.65829 0.0466,-0.19262 -1.19049,-0.76863 -1.15008,-1.79591 0.0404,-1.02727 1.13547,-1.49382 1.14043,-1.77167 -0.0123,-0.43215 -1.6008,-2.21121 -2.22147,-3.21743 -0.3967,0.22002 -1.07535,0.0656 -1.12395,0.61048 -0.0891,0.6265 1.22945,1.17829 1.20355,1.92097 -0.02,1.37973 -2.0971,1.32153 -2.12865,2.26754 -0.0833,0.61221 1.61597,1.33386 1.7016,2.0396 0.14737,0.66445 -0.39024,1.2058 -1.05322,1.85819 l -0.65482,34.86245 c -1.53853,0.62542 -2.13353,2.01575 -2.13353,3.77896 h 0.007 v 79.89951 h -0.007 c 0,2.32326 1.88371,4.20646 4.20697,4.20646 2.32326,0 4.20647,-1.8832 4.20647,-4.20646 h -0.007 v -79.89951 z"
         id="path6921"
         sodipodi:nodetypes="cccczccccccccccccscccc" />
      <path
         inkscape:connector-curvature="0"
         style="fill:#000000;fill-opacity:1;stroke:#000000;stroke-width:0.08673356;stroke-miterlimit:4;stroke-dasharray:none;stroke-opacity:1"
         d="m 294.11739,261.9746 c 0,-1.76338 -0.71169,-3.36412 -2.25047,-3.98943 -0.37943,-10.82264 -1.1139,-30.66955 -1.22523,-34.67766 -0.0146,-0.68035 0.19149,-0.91349 0.48705,-1.27 0.37245,-0.42148 0.69565,-0.90977 0.69286,-1.38198 -0.004,-0.73808 -1.68973,-2.08049 -1.69332,-2.69142 -0.004,-0.61094 1.15346,-1.47598 1.13934,-2.1452 -0.008,-0.38176 -0.50676,-0.81007 -0.93369,-1.10759 -0.71849,-0.48179 -1.33298,0.0124 -1.12188,0.47346 0.10433,0.22783 0.43956,0.45442 0.40893,0.60744 -0.0176,0.48935 -1.36682,1.33287 -1.39326,2.22074 -0.0264,0.88787 1.72493,1.81144 1.73814,2.75205 0.0132,0.94061 -1.26511,1.36717 -1.28595,2.2057 -0.2994,12.04183 -0.91206,35.03784 -0.91206,35.03784 -1.53854,0.62542 -2.06338,2.20284 -2.06338,3.96605 h 0.007 v 79.89951 h -0.007 c 0,2.32326 1.88371,4.20646 4.20697,4.20646 2.32326,0 4.20647,-1.8832 4.20647,-4.20646 h -0.007 V 261.9746 Z"
         id="path6925"
         sodipodi:nodetypes="ccccszscsczzscccccscccc" />
      <path
         sodipodi:nodetypes="cccccccccccscccc"
         id="path6929"
         d="m 386.27842,257.98518 c -0.56126,-13.63185 -1.52009,-40.00686 -1.52009,-40.00686 l 0.99675,-1.26217 c 0.20061,-0.23632 0.0932,-0.4275 -5.3e-4,-0.52124 l -1.33969,-1.25545 c -0.58886,-0.48635 -0.97134,0.0338 -0.97092,0.63399 l -1.27629,42.41226 c -1.53853,0.62542 -2.11015,1.99236 -2.11015,3.75557 h 0.007 v 79.89951 h -0.007 c 0,2.32326 1.88372,4.20646 4.20698,4.20646 2.32326,0 4.20646,-1.8832 4.20646,-4.20646 h -0.007 v -79.89951 c -0.0252,-2.05352 -1.05649,-3.39449 -2.1853,-3.7561 z"
         style="fill:#000000;fill-opacity:1;stroke:#000000;stroke-width:0.08673356;stroke-miterlimit:4;stroke-dasharray:none;stroke-opacity:1"
         inkscape:connector-curvature="0" />
      <path
         sodipodi:nodetypes="cccccccccccscccc"
         id="path6933"
         d="m 357.01937,262.12805 c 0,-1.76338 -0.5567,-3.40287 -2.09548,-4.02818 -0.30123,-13.28993 -1.50667,-26.96198 -1.71979,-40.26111 -0.0465,-1.50176 1.61795,-2.26397 1.61795,-2.26397 l -0.0167,-1.20819 c -0.01,-0.0858 -2.86291,0.74889 -2.94867,3.02298 l -1.08857,40.64414 c -1.53854,0.62543 -2.16162,2.33112 -2.16162,4.09433 h 0.007 v 79.89951 h -0.007 c 0,2.32326 1.88372,4.20646 4.20698,4.20646 2.32326,0 4.20646,-1.8832 4.20646,-4.20646 h -0.007 v -79.89951 z"
         style="fill:#000000;fill-opacity:1;stroke:#000000;stroke-width:0.08673356;stroke-miterlimit:4;stroke-dasharray:none;stroke-opacity:1"
         inkscape:connector-curvature="0" />
      <path
         inkscape:connector-curvature="0"
         style="fill:#000000;fill-opacity:1;stroke:#000000;stroke-width:0.08673356;stroke-miterlimit:4;stroke-dasharray:none;stroke-opacity:1"
         d="m 402.0039,258.06879 c -0.56126,-13.63184 -0.72634,-38.81623 -0.72634,-38.81623 l 1.16211,-1.5929 c 0.20061,-0.23632 0.0696,-0.52735 -0.0242,-0.62108 l -2.1582,-2.12074 c -0.5187,-0.53312 -0.87779,-0.15327 -0.87738,0.4469 l -1.48674,42.70458 c -1.53854,0.62543 -2.11015,1.99237 -2.11015,3.75557 h 0.007 v 79.89951 h -0.007 c 0,2.32326 1.88372,4.20646 4.20698,4.20646 2.32326,0 4.20646,-1.8832 4.20646,-4.20646 h -0.007 v -79.89951 c -0.0252,-2.05351 -1.05649,-3.39449 -2.1853,-3.7561 z"
         id="path6937"
         sodipodi:nodetypes="cccccccccccscccc" />
      <path
         sodipodi:nodetypes="cccccccccccsccccc"
         id="path6941"
         d="m 417.72942,257.99024 c -0.56127,-13.63184 -0.74973,-38.65252 -0.74973,-38.65252 l 1.58306,-1.63967 c 0.20061,-0.23632 0.0696,-0.52734 -0.0242,-0.62108 l -2.81301,-2.1909 c -0.51871,-0.34603 -0.92457,-0.0363 -0.92415,0.56383 l -1.18273,42.54087 c -1.53854,0.62543 -2.11015,1.99237 -2.11015,3.75557 h 0.007 v 79.89952 h -0.007 c 0,2.32326 1.88372,4.20646 4.20697,4.20646 2.32326,0 4.20646,-1.8832 4.20646,-4.20646 h -0.007 v -79.89952 c -0.0252,-2.05351 -1.05649,-3.39449 -2.18529,-3.7561 z"
         style="fill:#000000;fill-opacity:1;stroke:#000000;stroke-width:0.08673356;stroke-miterlimit:4;stroke-dasharray:none;stroke-opacity:1"
         inkscape:connector-curvature="0" />
      <path
         inkscape:connector-curvature="0"
         style="fill:#000000;fill-opacity:1;stroke:#000000;stroke-width:0.08673356;stroke-miterlimit:4;stroke-dasharray:none;stroke-opacity:1"
         d="m 449.18048,258.16891 c -0.56126,-13.63184 -1.45431,-38.93334 -1.41686,-39.31966 0.0362,-0.37358 -0.27439,-2.34022 1.70415,-3.14725 0.20333,-0.10658 0.12694,-0.26338 0.0898,-0.32868 l -0.37991,-0.60384 c -0.11443,-0.19826 -0.20927,-0.25784 -0.38544,-0.16075 -0.66824,0.29487 -2.56847,1.39136 -2.57289,3.40108 -0.005,2.42268 -1.14966,40.15963 -1.14966,40.15963 -1.53853,0.62542 -2.11015,1.99237 -2.11015,3.75557 h 0.007 v 79.8995 h -0.007 c 0,2.32326 1.88372,4.20646 4.20698,4.20646 2.32326,0 4.20646,-1.8832 4.20646,-4.20646 h -0.007 v -79.8995 c -0.0252,-2.05352 -1.05649,-3.39449 -2.1853,-3.7561 z"
         id="path6945"
         sodipodi:nodetypes="csccccscccccsccccc" />
      <path
         sodipodi:nodetypes="ccczsssssszzsscccccccccscccc"
         id="path6947"
         d="m 325.56847,262.00737 c 0,-1.76338 -0.57138,-3.10687 -2.11015,-3.73219 -0.5581,-13.11682 -1.06939,-20.38352 -0.89552,-21.0375 0.12172,-0.33378 0.45274,-0.88276 0.77216,-1.19327 0.31942,-0.31052 0.36915,-0.69776 -0.30589,-1.13477 -0.78218,-0.50636 -0.84688,-2.2108 -0.0652,-2.74263 0.37901,-0.25788 0.64367,-0.71443 -0.33216,-1.11229 -1.61635,-0.65901 -0.96447,-3.0521 -0.0834,-3.46835 0.93468,-0.44155 0.38155,-0.82037 0.15181,-1.03433 -1.18284,-1.10163 -0.52696,-2.2691 0.10364,-2.63707 0.38643,-0.22549 0.68483,-0.52967 0.18535,-0.87222 -0.49948,-0.34255 -0.64726,-1.8323 0.0102,-2.31568 0.6575,-0.48338 0.0126,-0.78966 -0.38721,-1.04716 -1.06183,-0.68384 -1.11658,-2.35829 -0.52551,-2.96434 0.23354,-0.23945 0.48516,-0.44402 -0.0352,-0.93938 l -1.22157,-1.28057 -0.6546,-0.0135 -0.0443,25.53476 -0.8419,18.21156 c -1.53854,0.62542 -2.13354,2.01575 -2.13354,3.77896 h 0.007 v 79.89951 h -0.007 c 0,2.32326 1.88372,4.20646 4.20698,4.20646 2.32325,0 4.20646,-1.8832 4.20646,-4.20646 h -0.007 v -79.89954 z"
         style="fill:#000000;fill-opacity:1;stroke:#000000;stroke-width:0.08673356;stroke-miterlimit:4;stroke-dasharray:none;stroke-opacity:1"
         inkscape:connector-curvature="0" />
      <path
         sodipodi:nodetypes="cccccccccccccscccc"
         id="path6951"
         d="m 276.1999,258.06401 -1.26285,-34.11357 1.56983,-6.09802 1.51891,-1.1393 c 0.25787,-0.20343 0.34145,-0.22492 0.0574,-0.48736 l -1.53485,-1.47433 c -0.14578,-0.12633 -0.41888,-0.1314 -0.50325,0.15056 l -2.76329,9.11861 -1.19269,34.04394 c -1.53854,0.62542 -2.11015,1.99236 -2.11015,3.75557 h 0.007 v 79.89951 h -0.007 c 0,2.32326 1.88371,4.20646 4.20697,4.20646 2.32326,0 4.20647,-1.8832 4.20647,-4.20646 h -0.007 v -79.89951 c -0.0252,-2.05352 -1.0565,-3.39449 -2.1853,-3.7561 z"
         style="fill:#000000;fill-opacity:1;stroke:#000000;stroke-width:0.08673356;stroke-miterlimit:4;stroke-dasharray:none;stroke-opacity:1"
         inkscape:connector-curvature="0" />
      <path
         inkscape:connector-curvature="0"
         style="fill:#000000;fill-opacity:1;stroke:#000000;stroke-width:0.08673356;stroke-miterlimit:4;stroke-dasharray:none;stroke-opacity:1"
         d="m 260.47438,258.12224 -1.28624,-37.43439 0.98518,-3.40863 0.88749,-0.74173 c 0.25787,-0.20343 0.35314,-0.34185 0.11589,-0.63937 l -0.90928,-1.05923 c -0.23348,-0.33095 -0.51826,-0.27756 -0.60264,0.004 l -1.87462,5.61069 -1.42655,37.66878 c -1.53854,0.62543 -2.11015,1.99237 -2.11015,3.75557 h 0.007 v 79.89951 h -0.007 c 0,2.32326 1.88371,4.20646 4.20697,4.20646 2.32326,0 4.20647,-1.8832 4.20647,-4.20646 h -0.007 v -79.8991 c -0.0252,-2.05352 -1.0565,-3.39449 -2.1853,-3.7561 z"
         id="path6955"
         sodipodi:nodetypes="cccccccccccccscccc" />
      <path
         sodipodi:nodetypes="ccccccccccccccccccccccccccsccccc"
         id="path6959"
         d="m 244.66766,258.2646 -1.35238,-9.19012 -0.0788,-9.7201 c -0.014,-0.18842 0.0153,-0.26509 0.0863,-0.40692 l 2.24449,-4.48456 c 0.0611,-0.19775 0.0772,-0.29159 -0.0173,-0.52153 l -2.16961,-4.79436 c -0.0623,-0.14457 -0.0715,-0.22425 -0.007,-0.39248 l 3.60272,-9.32922 c 0.0745,-0.15036 0.0557,-0.44836 -0.0224,-0.5603 l -2.65889,-4.24756 c -0.93879,-0.41211 -1.29774,0.0678 -1.42946,0.89737 l 2.16973,3.42893 c 0.11177,0.15729 0.12125,0.25788 0.0508,0.41787 l -3.73628,9.55865 c -0.0753,0.20019 -0.0711,0.26387 0.0246,0.45544 l 2.25278,4.49796 c 0.15856,0.25132 0.14094,0.31878 0.0191,0.56731 l -2.09234,4.15437 c -0.16722,0.2364 -0.17146,0.43056 -0.17314,0.7065 l -0.0592,9.73721 -0.7651,9.22607 c -1.53853,0.62542 -2.11015,1.99236 -2.11015,3.75557 h 0.007 v 79.89951 h -0.007 c 0,2.32326 1.88372,4.20646 4.20698,4.20646 2.32326,0 4.20646,-1.8832 4.20646,-4.20646 h -0.007 V 262.0207 c -0.0252,-2.05352 -1.05649,-3.39449 -2.1853,-3.7561 z"
         style="fill:#000000;fill-opacity:1;stroke:#000000;stroke-width:0.08673356;stroke-miterlimit:4;stroke-dasharray:none;stroke-opacity:1"
         inkscape:connector-curvature="0" />
      <path
         inkscape:connector-curvature="0"
         style="fill:#000000;fill-opacity:1;stroke:#000000;stroke-width:0.08673356;stroke-miterlimit:4;stroke-dasharray:none;stroke-opacity:1"
         d="m 229.02327,258.19354 -1.21207,-9.14335 -0.0372,-9.89916 c -0.014,-0.18842 0.0153,-0.26509 0.0863,-0.40692 l 2.31247,-4.3531 c 0.0962,-0.20944 0.0889,-0.39682 -0.006,-0.62677 l -3.45644,-9.51694 c -0.0623,-0.14457 -0.0715,-0.22425 -0.007,-0.39247 l 2.31078,-4.7077 c 0.0745,-0.15036 0.0849,-0.48345 0.007,-0.59538 l -1.41848,-3.77067 c -0.20213,-0.56412 -1.75377,-0.0608 -1.46454,0.67521 l 1.02871,3.12158 c 0.0825,0.19237 0.0803,0.30466 0.01,0.46464 l -2.34403,4.84943 c -0.0753,0.20019 -0.0652,0.27556 -0.0105,0.46714 l 3.53378,9.31992 c 0.10595,0.24548 0.0825,0.3597 -0.0394,0.60824 l -2.25771,4.23705 c -0.14383,0.27148 -0.17145,0.43056 -0.17313,0.7065 l -0.0678,9.78398 -0.90541,9.1793 c -1.53854,0.62542 -2.11015,1.99236 -2.11015,3.75557 h 0.007 v 79.89951 h -0.007 c 0,2.32326 1.88372,4.20646 4.20698,4.20646 2.32326,0 4.20646,-1.8832 4.20646,-4.20646 h -0.007 v -79.89951 c -0.0252,-2.05352 -1.05649,-3.39449 -2.18529,-3.7561 z"
         id="path6963"
         sodipodi:nodetypes="ccccccccccccccccccccccccccsccccc" />
      <path
         sodipodi:nodetypes="ccccccccsccccc"
         id="path6967"
         d="m 433.37543,258.15534 c -4.09122,-11.66855 -4.73614,-32.55754 2.01761,-41.51244 1.07379,-1.7435 -0.69537,-2.94501 -1.66737,-1.24655 -7.16589,11.47767 -5.79084,31.77008 -4.46101,42.75952 -1.53853,0.62542 -2.11015,1.99237 -2.11015,3.75557 h 0.007 v 79.8995 h -0.007 c 0,2.32326 1.88372,4.20646 4.20698,4.20646 2.32326,0 4.20646,-1.8832 4.20646,-4.20646 h -0.007 v -79.8995 c -0.0252,-2.05352 -1.05649,-3.39449 -2.1853,-3.7561 z"
         style="fill:#000000;fill-opacity:1;stroke:#000000;stroke-width:0.08673356;stroke-miterlimit:4;stroke-dasharray:none;stroke-opacity:1"
         inkscape:connector-curvature="0" />
      <path
         sodipodi:nodetypes="ccccccccccccccc"
         inkscape:connector-curvature="0"
         id="path6969"
         d="m 467.09822,341.74273 h -0.007 v -79.89951 c -0.0252,-2.05351 -1.05607,-3.39423 -2.18488,-3.75584 -0.5504,-13.36816 -1.14829,-38.12077 -1.1715,-39.08495 0.88889,-0.32618 1.47935,-1.16712 1.48001,-2.10789 0,-1.24206 -1.01429,-2.24895 -2.26549,-2.24895 -0.72291,-0.0103 -0.93554,0.38711 -0.93793,0.86816 l -1.21595,42.57415 c -1.53853,0.62542 -2.11046,1.99212 -2.11046,3.75532 h 0.007 v 79.89951 h -0.007 c 0,2.32326 1.88372,4.20646 4.20698,4.20646 2.32325,0 4.20646,-1.8832 4.20646,-4.20646 z"
         style="fill:#000000;fill-opacity:1;stroke:#000000;stroke-width:0.08673356;stroke-miterlimit:4;stroke-dasharray:none;stroke-opacity:1" />
      <path
         sodipodi:nodetypes="cccccccccccccccccc"
         inkscape:connector-curvature="0"
         id="path6978"
         d="m 482.82376,341.7814 h -0.007 v -79.89952 c -0.0252,-2.05351 -1.05607,-3.39423 -2.18488,-3.75584 -0.5124,-11.86107 -0.71242,-23.73355 -1.06712,-35.59886 0.84785,-0.36458 1.39771,-1.19841 1.39889,-2.12132 -10e-4,-1.00705 -0.55161,-1.81332 -1.49684,-2.11973 -0.13313,-0.0979 -0.0221,-0.25323 0.0254,-0.27935 0.67449,-0.27636 1.00703,-0.8448 1.00735,-1.5862 1.2e-4,-1.00181 -0.81204,-1.81397 -1.81384,-1.81385 -0.6402,0.0175 -0.93781,0.48311 -0.94878,0.94568 -0.039,14.04488 -0.78606,28.37294 -1.21595,42.57415 -1.53854,0.62542 -2.11046,1.99212 -2.11046,3.75532 h 0.007 v 79.89952 h -0.007 c 0,2.32326 1.88372,4.20647 4.20697,4.20646 2.32326,0 4.20647,-1.8832 4.20647,-4.20646 z"
         style="fill:#000000;fill-opacity:1;stroke:#000000;stroke-width:0.08673356;stroke-miterlimit:4;stroke-dasharray:none;stroke-opacity:1" />
      <path
         sodipodi:nodetypes="ccccccssssssccccccccc"
         inkscape:connector-curvature="0"
         id="path967"
         d="m 498.54926,342.23821 h -0.007 V 262.3387 c -0.0252,-2.05352 -1.05607,-3.39424 -2.18488,-3.75584 -0.36438,-8.43436 -0.57065,-16.87432 -0.78703,-25.31352 -0.0524,-1.17997 0.2899,-1.41873 0.72188,-1.51896 0.84451,-0.23413 1.46091,-1.00588 1.46091,-1.92701 v -13.67358 c 0,-1.108 -0.89187,-1.99988 -1.99987,-1.99988 h -2.82154 c -1.108,0 -1.99988,0.89188 -1.99988,1.99988 v 13.67358 c 0,0.9314 0.63023,1.71008 1.48928,1.93464 0.53105,0.12932 0.73707,0.67088 0.70994,1.5363 -0.26412,8.41737 -0.62988,16.87547 -0.88457,25.28906 -1.53854,0.62543 -2.11046,1.99213 -2.11046,3.75533 h 0.007 v 79.89951 h -0.007 c 0,2.32326 1.88371,4.20647 4.20697,4.20646 2.32326,0 4.20646,-1.8832 4.20646,-4.20646 z"
         style="fill:#000000;fill-opacity:1;stroke:#000000;stroke-width:0.08673356;stroke-miterlimit:4;stroke-dasharray:none;stroke-opacity:1" />
      <path
         inkscape:connector-curvature="0"
         id="path5518"
         d="m 505.23037,351.85328 v 8.7635 H 218.90072 v -7.88715"
         style="fill:none;stroke:#000000;stroke-width:2.27568865;stroke-linecap:butt;stroke-linejoin:miter;stroke-miterlimit:4;stroke-dasharray:none;stroke-opacity:1" />
      <text
         id="text5526"
         y="371.38437"
         x="323.12735"
         style="font-style:normal;font-weight:normal;font-size:10.58333302px;line-height:1.25;font-family:sans-serif;letter-spacing:0px;word-spacing:0px;fill:#000000;fill-opacity:1;stroke:none;stroke-width:0.26458332"
         xml:space="preserve"><tspan
           style="stroke-width:0.26458332"
           y="371.38437"
           x="323.12735"
           id="tspan5524"
           sodipodi:role="line">Tapered Shank</tspan></text>
      <text
         xml:space="preserve"
         style="font-style:normal;font-weight:normal;font-size:10.58333302px;line-height:1.25;font-family:sans-serif;letter-spacing:0px;word-spacing:0px;fill:#000000;fill-opacity:1;stroke:none;stroke-width:0.26458332"
         x="223.54942"
         y="356.41769"
         id="text6023"><tspan
           sodipodi:role="line"
           id="tspan6021"
           x="223.54942"
           y="356.41769"
           style="stroke-width:0.26458332">1</tspan></text>
      <text
         id="text6027"
         y="356.41769"
         x="239.51006"
         style="font-style:normal;font-weight:normal;font-size:10.58333302px;line-height:1.25;font-family:sans-serif;letter-spacing:0px;word-spacing:0px;fill:#000000;fill-opacity:1;stroke:none;stroke-width:0.26458332"
         xml:space="preserve"><tspan
           style="stroke-width:0.26458332"
           y="356.41769"
           x="239.51006"
           id="tspan6025"
           sodipodi:role="line">2</tspan></text>
      <text
         xml:space="preserve"
         style="font-style:normal;font-weight:normal;font-size:10.58333302px;line-height:1.25;font-family:sans-serif;letter-spacing:0px;word-spacing:0px;fill:#000000;fill-opacity:1;stroke:none;stroke-width:0.26458332"
         x="255.11412"
         y="356.26782"
         id="text6031"><tspan
           sodipodi:role="line"
           id="tspan6029"
           x="255.11412"
           y="356.26782"
           style="stroke-width:0.26458332">3</tspan></text>
      <text
         id="text6035"
         y="356.41769"
         x="270.85773"
         style="font-style:normal;font-weight:normal;font-size:10.58333302px;line-height:1.25;font-family:sans-serif;letter-spacing:0px;word-spacing:0px;fill:#000000;fill-opacity:1;stroke:none;stroke-width:0.26458332"
         xml:space="preserve"><tspan
           style="stroke-width:0.26458332"
           y="356.41769"
           x="270.85773"
           id="tspan6033"
           sodipodi:role="line">4</tspan></text>
      <text
         xml:space="preserve"
         style="font-style:normal;font-weight:normal;font-size:10.58333302px;line-height:1.25;font-family:sans-serif;letter-spacing:0px;word-spacing:0px;fill:#000000;fill-opacity:1;stroke:none;stroke-width:0.26458332"
         x="286.59872"
         y="356.26782"
         id="text6039"><tspan
           sodipodi:role="line"
           id="tspan6037"
           x="286.59872"
           y="356.26782"
           style="stroke-width:0.26458332">5</tspan></text>
      <text
         id="text6043"
         y="356.26782"
         x="302.2338"
         style="font-style:normal;font-weight:normal;font-size:10.58333302px;line-height:1.25;font-family:sans-serif;letter-spacing:0px;word-spacing:0px;fill:#000000;fill-opacity:1;stroke:none;stroke-width:0.26458332"
         xml:space="preserve"><tspan
           style="stroke-width:0.26458332"
           y="356.26782"
           x="302.2338"
           id="tspan6041"
           sodipodi:role="line">6</tspan></text>
      <text
         id="text6047"
         y="356.41769"
         x="318.01355"
         style="font-style:normal;font-weight:normal;font-size:10.58333302px;line-height:1.25;font-family:sans-serif;letter-spacing:0px;word-spacing:0px;fill:#000000;fill-opacity:1;stroke:none;stroke-width:0.26458332"
         xml:space="preserve"><tspan
           style="stroke-width:0.26458332"
           y="356.41769"
           x="318.01355"
           id="tspan6045"
           sodipodi:role="line">7</tspan></text>
      <text
         xml:space="preserve"
         style="font-style:normal;font-weight:normal;font-size:10.58333302px;line-height:1.25;font-family:sans-serif;letter-spacing:0px;word-spacing:0px;fill:#000000;fill-opacity:1;stroke:none;stroke-width:0.26458332"
         x="333.72357"
         y="356.26782"
         id="text6051"><tspan
           sodipodi:role="line"
           id="tspan6049"
           x="333.72357"
           y="356.26782"
           style="stroke-width:0.26458332">8</tspan></text>
      <text
         id="text6055"
         y="356.26782"
         x="349.48526"
         style="font-style:normal;font-weight:normal;font-size:10.58333302px;line-height:1.25;font-family:sans-serif;letter-spacing:0px;word-spacing:0px;fill:#000000;fill-opacity:1;stroke:none;stroke-width:0.26458332"
         xml:space="preserve"><tspan
           style="stroke-width:0.26458332"
           y="356.26782"
           x="349.48526"
           id="tspan6053"
           sodipodi:role="line">9</tspan></text>
      <text
         xml:space="preserve"
         style="font-style:normal;font-weight:normal;font-size:10.58333302px;line-height:1.25;font-family:sans-serif;letter-spacing:0px;word-spacing:0px;fill:#000000;fill-opacity:1;stroke:none;stroke-width:0.26458332"
         x="362.0675"
         y="356.26782"
         id="text6059"><tspan
           sodipodi:role="line"
           id="tspan6057"
           x="362.0675"
           y="356.26782"
           style="letter-spacing:-0.98954165px;stroke-width:0.26458332">10</tspan></text>
      <text
         id="text6063"
         y="356.41769"
         x="377.92996"
         style="font-style:normal;font-weight:normal;font-size:10.58333302px;line-height:1.25;font-family:sans-serif;letter-spacing:0px;word-spacing:0px;fill:#000000;fill-opacity:1;stroke:none;stroke-width:0.26458332"
         xml:space="preserve"><tspan
           style="letter-spacing:-0.98954165px;stroke-width:0.26458332"
           y="356.41769"
           x="377.92996"
           id="tspan6061"
           sodipodi:role="line">11</tspan></text>
      <text
         id="text6067"
         y="356.41769"
         x="393.69681"
         style="font-style:normal;font-weight:normal;font-size:10.58333302px;line-height:1.25;font-family:sans-serif;letter-spacing:0px;word-spacing:0px;fill:#000000;fill-opacity:1;stroke:none;stroke-width:0.26458332"
         xml:space="preserve"><tspan
           style="letter-spacing:-0.98954165px;stroke-width:0.26458332"
           y="356.41769"
           x="393.69681"
           id="tspan6065"
           sodipodi:role="line">12</tspan></text>
      <text
         xml:space="preserve"
         style="font-style:normal;font-weight:normal;font-size:10.58333302px;line-height:1.25;font-family:sans-serif;letter-spacing:0px;word-spacing:0px;fill:#000000;fill-opacity:1;stroke:none;stroke-width:0.26458332"
         x="409.31638"
         y="356.26782"
         id="text6071"><tspan
           sodipodi:role="line"
           id="tspan6069"
           x="409.31638"
           y="356.26782"
           style="letter-spacing:-0.98954165px;stroke-width:0.26458332">13</tspan></text>
      <text
         id="text6075"
         y="356.41769"
         x="424.91525"
         style="font-style:normal;font-weight:normal;font-size:10.58333302px;line-height:1.25;font-family:sans-serif;letter-spacing:0px;word-spacing:0px;fill:#000000;fill-opacity:1;stroke:none;stroke-width:0.26458332"
         xml:space="preserve"><tspan
           style="letter-spacing:-0.98954165px;stroke-width:0.26458332"
           y="356.41769"
           x="424.91525"
           id="tspan6073"
           sodipodi:role="line">14</tspan></text>
      <text
         xml:space="preserve"
         style="font-style:normal;font-weight:normal;font-size:10.58333302px;line-height:1.25;font-family:sans-serif;letter-spacing:0px;word-spacing:0px;fill:#000000;fill-opacity:1;stroke:none;stroke-width:0.26458332"
         x="440.80612"
         y="356.26782"
         id="text6079"><tspan
           sodipodi:role="line"
           id="tspan6077"
           x="440.80612"
           y="356.26782"
           style="letter-spacing:-0.98954165px;stroke-width:0.26458332">15</tspan></text>
      <text
         xml:space="preserve"
         style="font-style:normal;font-weight:normal;font-size:10.58333302px;line-height:1.25;font-family:sans-serif;letter-spacing:0px;word-spacing:0px;fill:#000000;fill-opacity:1;stroke:none;stroke-width:0.26458332"
         x="456.40244"
         y="356.26782"
         id="text6083"><tspan
           sodipodi:role="line"
           id="tspan6081"
           x="456.40244"
           y="356.26782"
           style="letter-spacing:-0.98954165px;stroke-width:0.26458332">16</tspan></text>
      <text
         id="text6087"
         y="356.41769"
         x="472.2468"
         style="font-style:normal;font-weight:normal;font-size:10.58333302px;line-height:1.25;font-family:sans-serif;letter-spacing:0px;word-spacing:0px;fill:#000000;fill-opacity:1;stroke:none;stroke-width:0.26458332"
         xml:space="preserve"><tspan
           style="letter-spacing:-0.98954165px;stroke-width:0.26458332"
           y="356.41769"
           x="472.2468"
           id="tspan6085"
           sodipodi:role="line">17</tspan></text>
      <text
         id="text6091"
         y="356.26782"
         x="487.88187"
         style="font-style:normal;font-weight:normal;font-size:10.58333302px;line-height:1.25;font-family:sans-serif;letter-spacing:0px;word-spacing:0px;fill:#000000;fill-opacity:1;stroke:none;stroke-width:0.26458332"
         xml:space="preserve"><tspan
           style="letter-spacing:-0.98954165px;stroke-width:0.26458332"
           y="356.26782"
           x="487.88187"
           id="tspan6089"
           sodipodi:role="line">18</tspan></text>
    </g>
  </g>
</svg>
